<?xml version="1.0" encoding="UTF-8"?>
<svg version="1.1" xmlns="http://www.w3.org/2000/svg" width="337" height="81">
<path d="M0 0 C1.73177886 -0.00782324 1.73177886 -0.00782324 3.49854314 -0.01580453 C4.77789287 -0.01134309 6.05724259 -0.00688164 7.37536049 -0.002285 C8.73954645 -0.00458748 10.10373117 -0.00776256 11.46791327 -0.01173949 C15.2296265 -0.02012574 18.99123888 -0.01594494 22.75295258 -0.00976706 C26.8048453 -0.00525906 30.85672016 -0.01221814 34.90860939 -0.0177269 C42.85197089 -0.02664076 50.79529469 -0.02468991 58.7386577 -0.01890162 C65.19309915 -0.01439231 71.64753001 -0.01376905 78.10197258 -0.01594925 C79.01919128 -0.01625572 79.93640998 -0.01656218 80.88142318 -0.01687793 C82.74452419 -0.01751736 84.6076252 -0.01816579 86.47072621 -0.01882312 C103.9599615 -0.02453241 121.44917587 -0.01795947 138.93840773 -0.00722238 C153.95407444 0.00171069 168.96971022 0.00016425 183.98537636 -0.00905991 C201.40719157 -0.01975711 218.82898841 -0.02397989 236.25080645 -0.01783538 C238.10782154 -0.01719826 239.96483663 -0.01656952 241.82185173 -0.01594925 C243.19250324 -0.01548642 243.19250324 -0.01548642 244.59084468 -0.01501425 C251.03859685 -0.01328543 257.48633739 -0.01620648 263.93408775 -0.02090836 C271.79038993 -0.02651121 279.64665212 -0.02501342 287.5029497 -0.01434687 C291.51350924 -0.00908166 295.52400207 -0.00704777 299.53456116 -0.01364517 C303.2035093 -0.01958942 306.87232868 -0.01635485 310.54126509 -0.00569007 C312.50265213 -0.00238522 314.46404807 -0.00894073 316.42542589 -0.01580453 C317.58516062 -0.01058903 318.74489535 -0.00537354 319.93977356 0 C321.44411817 0.00048706 321.44411817 0.00048706 322.97885358 0.00098395 C325.65870749 0.25771577 327.30274569 0.8809508 329.59572792 2.25168228 C329.62272517 4.5224507 329.64212245 6.7933105 329.65822792 9.06418228 C329.66982948 10.32875259 329.68143105 11.59332291 329.69338417 12.89621353 C329.59572792 16.25168228 329.59572792 16.25168228 328.59572792 19.25168228 C328.80600624 20.47842667 328.80600624 20.47842667 329.02053261 21.72995377 C329.83041177 26.68857302 329.77849025 31.58261925 329.79885292 36.59933853 C329.80455299 37.68879272 329.81025307 38.77824692 329.81612587 39.90071487 C329.82554782 42.1977886 329.83209866 44.49487568 329.8359623 46.79196548 C329.84570376 50.30546802 329.87676861 53.81839408 329.90822792 57.33176041 C329.91475514 59.56678299 329.92000671 61.80180973 329.92385292 64.03683853 C329.93619972 65.08589874 329.94854652 66.13495895 329.96126747 67.21580887 C329.94891794 71.25383678 329.83588309 74.55574117 328.51272011 78.39011002 C324.55958384 82.22896177 317.87310118 81.37699515 312.63071632 81.37866592 C311.63367503 81.38100591 311.63367503 81.38100591 310.6164915 81.38339317 C308.40878219 81.38735384 306.20114271 81.38423284 303.993433 81.38107681 C302.40285133 81.382433 300.81226998 81.38421416 299.22168922 81.38638687 C294.91617949 81.39093415 290.61069379 81.38918307 286.30518365 81.38600779 C281.79604863 81.38347153 277.28691563 81.38582513 272.77778053 81.38739395 C265.20968698 81.38921138 257.64160319 81.38681992 250.07351112 81.38205338 C241.32282315 81.37660568 232.57215845 81.37837881 223.82147104 81.38387978 C216.30455476 81.388416 208.78764549 81.38905913 201.27072829 81.38644111 C196.78262525 81.38488191 192.29453316 81.38467496 187.80643082 81.3879776 C183.58998904 81.39086389 179.37357735 81.38886663 175.15713882 81.38308334 C173.60914599 81.38176008 172.06115063 81.38214253 170.5131588 81.38434601 C168.4020011 81.38707435 166.29094011 81.38365578 164.17978859 81.37866592 C162.99792378 81.3782889 161.81605898 81.37791187 160.59838009 81.37752342 C157.59572792 81.25168228 157.59572792 81.25168228 155.62172413 80.6812458 C152.52339741 80.02432052 149.70532656 80.76555173 146.59572792 81.25168228 C144.41239951 81.34484044 142.2268768 81.39454424 140.04158974 81.40558243 C138.7657653 81.41418289 137.48994087 81.42278336 136.17545509 81.43164444 C134.77941363 81.43607829 133.38337174 81.44037677 131.98732948 81.44455338 C130.50349681 81.45246467 129.01966602 81.46073424 127.53583717 81.46933365 C122.68602742 81.49540502 117.83620959 81.51083257 112.98635292 81.52511978 C111.31387515 81.53048301 109.64139743 81.53586052 107.96891975 81.54125214 C101.01674711 81.5628467 94.06457669 81.58158742 87.11237907 81.59287453 C77.15536512 81.60915024 67.19873892 81.64245418 57.24187112 81.69927537 C50.23367305 81.73790845 43.22557908 81.7574985 36.21727729 81.76279509 C32.03252331 81.76645373 27.84818436 81.77853142 23.66354561 81.81089783 C19.73337582 81.84086719 15.8038748 81.84733083 11.87361526 81.83551407 C10.4299928 81.83529249 8.9863402 81.84366738 7.54282379 81.86116791 C5.57598894 81.88372075 3.60885312 81.87262287 1.64193153 81.85968399 C-0.01057169 81.86464921 -0.01057169 81.86464921 -1.69645882 81.86971474 C-4.40427208 81.25168228 -4.40427208 81.25168228 -6.25877094 78.92600346 C-7.74625957 75.45326808 -7.77841876 72.69968235 -7.77658653 68.92282486 C-7.7802372 68.20354309 -7.78388786 67.48426132 -7.78764915 66.74318314 C-7.79572358 64.37728286 -7.78217505 62.01207398 -7.76755333 59.64621353 C-7.76703452 57.99905269 -7.76755304 56.35189122 -7.76906395 54.70473099 C-7.76897438 51.25910531 -7.75857246 47.81371434 -7.74045372 44.36813736 C-7.71771345 39.94602196 -7.71723365 35.52424773 -7.72397137 31.10208988 C-7.7273073 27.7040998 -7.72068928 24.30618793 -7.71084213 20.90821266 C-7.70698735 19.27708406 -7.70584307 17.64594677 -7.70742798 16.01481438 C-7.70779762 13.74049175 -7.69520922 11.46661233 -7.67893028 9.19235611 C-7.67432289 7.89727631 -7.6697155 6.6021965 -7.66496849 5.26787186 C-7.20085643 -0.10178386 -4.74668426 0.00153732 0 0 Z M28.07229042 3.68527603 C21.70257532 4.42924538 15.3760455 4.36059763 8.97072792 4.31418228 C7.17828651 4.3074147 7.17828651 4.3074147 5.34963417 4.30051041 C2.43161145 4.28883832 -0.48630245 4.27246554 -3.40427208 4.25168228 C-4.36689068 7.78128383 -4.26785408 10.44030091 -3.66870689 14.01684952 C-3.04066107 19.3246884 -3.28503501 24.72370822 -3.30661583 30.06027603 C-3.30848375 31.39548565 -3.30990588 32.73069597 -3.31090355 34.06590652 C-3.31469931 37.55930896 -3.32450408 41.05266901 -3.33560753 44.54605484 C-3.34588527 48.11914878 -3.35041473 51.69224965 -3.35544395 55.26535416 C-3.36612933 62.26081414 -3.38316992 69.25624617 -3.40427208 76.25168228 C0.2043424 77.07803151 3.53529583 77.37838204 7.23417377 77.38311005 C8.36454899 77.38695119 9.49492422 77.39079234 10.65955323 77.39474988 C12.51498859 77.39345016 12.51498859 77.39345016 14.40790749 77.39212418 C15.72567234 77.3950953 17.04343719 77.39806642 18.40113431 77.40112758 C22.05728702 77.4091867 25.71342009 77.41098653 29.36958063 77.41172504 C33.31299514 77.41357735 37.25639949 77.4211253 41.19980812 77.42786026 C49.81920474 77.44143356 58.43859671 77.44746595 67.05800223 77.45187092 C72.43695026 77.45463347 77.81589648 77.45887069 83.19484329 77.46337509 C98.08106784 77.47556347 112.96729096 77.48586557 127.85352039 77.48925018 C128.80591249 77.48946975 129.75830458 77.48968932 130.73955705 77.48991553 C131.69423888 77.49013381 132.64892071 77.49035209 133.6325323 77.49057698 C135.5671229 77.49102045 137.5017135 77.49146701 139.43630409 77.49191666 C140.87574283 77.4922488 140.87574283 77.4922488 142.34426115 77.49258766 C157.91400941 77.49654067 173.48371103 77.51401192 189.05344125 77.53727618 C205.02972639 77.56095592 221.00598806 77.57345039 236.98229104 77.5746181 C245.95622222 77.57553645 254.9300925 77.58132934 263.90400696 77.59943771 C271.54034836 77.61479277 279.17661003 77.61998628 286.81296393 77.61169961 C290.71194458 77.60777751 294.61076443 77.60879826 298.50972557 77.62275696 C302.72810125 77.63772192 306.94611034 77.62967637 311.16449928 77.61917496 C312.40814835 77.62723136 313.65179742 77.63528777 314.93313283 77.6435883 C316.05568481 77.63699846 317.17823678 77.63040862 318.33480549 77.62361908 C319.79684014 77.62451471 319.79684014 77.62451471 321.28841084 77.62542844 C322.04982548 77.50209221 322.81124011 77.37875597 323.59572792 77.25168228 C325.9744317 73.68362661 325.84387681 72.14958971 325.83864784 67.91598892 C325.84172447 66.60775665 325.8448011 65.29952438 325.84797096 63.95164871 C325.84107208 62.52171021 325.83380502 61.09177344 325.82619667 59.66183853 C325.8250043 58.19597285 325.82455183 56.7301064 325.82480812 55.26424026 C325.82324393 52.19172762 325.81496029 49.1193316 325.80153847 46.0468483 C325.78456374 42.11145538 325.78072379 38.17619081 325.78148365 34.24076557 C325.78121147 31.213294 325.77572223 28.1858504 325.76848221 25.15838814 C325.76530321 23.70754012 325.76332993 22.25668894 325.7625885 20.80583763 C325.76041597 18.77613687 325.75086592 16.74644807 325.74099159 14.71677017 C325.73717979 13.56221832 325.733368 12.40766647 325.72944069 11.2181282 C325.61534773 8.68695179 325.25175878 6.67301613 324.59572792 4.25168228 C323.99283892 4.252062 323.38994992 4.25244172 322.76879156 4.25283295 C287.04519268 4.27520582 251.32159501 4.29236621 215.59799059 4.30274761 C211.3096387 4.30399833 207.02128682 4.30529265 202.73293495 4.30661392 C201.87919299 4.30687623 201.02545103 4.30713854 200.1458381 4.3074088 C186.31798919 4.31176138 172.49014445 4.31964667 158.66229801 4.32883508 C144.47609362 4.33818306 130.28989141 4.34374033 116.10368407 4.34577078 C107.34842781 4.34714362 98.59318328 4.35148134 89.83793063 4.35959875 C83.83601108 4.36488031 77.83409761 4.36648335 71.8321759 4.36518366 C68.36821874 4.3645425 64.90428211 4.36553284 61.4403286 4.37088776 C57.68517624 4.37584754 53.93007451 4.37467204 50.17492104 4.3719368 C48.53191979 4.37630606 48.53191979 4.37630606 46.8557266 4.38076359 C40.59450897 4.36839856 34.21897121 2.81746973 28.07229042 3.68527603 Z " fill="#8B9B08" transform="translate(7.404272079467773,-0.2516822814941406)"/>
</svg>
