<svg width="109" height="87" viewBox="0 0 109 87" fill="none" xmlns="http://www.w3.org/2000/svg">
<path d="M0.25708 47.548C18.1051 58.2473 23.5713 66.5599 23.8334 86.2213C23.8334 86.2213 86.4983 86.3051 84.7171 86.2213C82.936 86.1376 84.7974 69.1728 93.5258 60.352L107.257 47.548L100.78 48.8546C92.1532 51.2553 87.8862 53.8172 80.8309 59.5681C77.5695 54.6841 77.3894 49.2421 79.7946 38.6636L82.6445 30.3018L86.5307 21.94C86.5307 21.94 83.6808 22.9852 76.6857 30.5631C69.6905 38.1409 65.9769 47.3035 62.4363 58.5229C56.1526 33.9119 59.1918 23.312 62.3663 1.25854C49.8751 12.1095 44.5827 21.5065 40.6036 48.8162C27.1777 37.5236 19.3667 35.4885 5.1796 34.4827C23.9418 42.3973 30.0967 49.6047 34.7147 67.4073C30.3195 61.3732 27.6264 58.4529 22.0198 54.8646C13.5456 49.6825 8.77745 48.4117 0.25708 47.548Z" fill="#576B4E" stroke="#8C9C09"/>
</svg>
