<svg width="672" height="14" viewBox="0 0 672 14" fill="none" xmlns="http://www.w3.org/2000/svg">
<path d="M0.563867 6.96796L1.12822 4.02152L0.848586 3.96796H0.563867V6.96796ZM14.8189 6.89164L14.3364 9.85259L14.8189 6.89164ZM20.0389 6.80112L19.8073 3.81007L20.0389 6.80112ZM25.2589 4.9055L24.0088 2.17836L25.2589 4.9055ZM30.4789 4.83309L30.0796 7.80639L30.4789 4.83309ZM38.3089 5.10949L36.2022 7.24533L38.3089 5.10949ZM40.9189 7.68387L43.0256 5.54802L40.9189 7.68387ZM43.5289 8.29937L44.9018 10.9668L43.5289 8.29937ZM46.1389 6.956L44.766 4.28859L46.1389 6.956ZM53.9689 9.96466L55.2044 12.6984L53.9689 9.96466ZM56.5789 8.78509L55.3434 6.05132L56.5789 8.78509ZM61.7989 7.74369L61.4551 4.76346L61.7989 7.74369ZM64.4089 8.11072L65.5149 5.32203L64.4089 8.11072ZM67.0189 9.14583L68.1249 6.35714L67.0189 9.14583ZM69.6289 9.69806L69.5492 12.697L69.6289 9.69806ZM72.2389 9.7674L72.1592 12.7663L72.2389 9.7674ZM77.4589 4.67859L75.0751 2.85711L77.4589 4.67859ZM80.0689 4.11245L78.0935 6.37034L80.0689 4.11245ZM82.6789 6.39581L84.6542 4.13792L82.6789 6.39581ZM85.2889 6.46556L87.1931 8.78377L85.2889 6.46556ZM87.8989 4.32169L85.9947 2.00349L87.8989 4.32169ZM98.3389 7.64252L96.6148 5.1874L98.3389 7.64252ZM100.949 7.48494L99.4408 10.0784L100.949 7.48494ZM106.169 8.46965L108.279 10.6017L106.169 8.46965ZM108.779 5.88602L106.668 3.75396L108.779 5.88602ZM127.049 4.77249L129.081 2.56552L127.049 4.77249ZM128.354 5.97406L126.322 8.18103L128.354 5.97406ZM129.659 7.17564L131.691 4.96867L129.659 7.17564ZM140.099 6.97002L139.98 9.96767L140.099 6.97002ZM142.709 7.97776L140.936 10.3978L142.709 7.97776ZM158.369 8.51714L156.786 5.96887L158.369 8.51714ZM160.979 6.89568L162.562 9.44395L160.979 6.89568ZM163.589 6.58354L162.518 9.38596L163.589 6.58354ZM176.639 5.80449L175.109 3.22406L176.639 5.80449ZM179.249 4.7112L178.536 1.79723L179.249 4.7112ZM181.859 4.0723L181.146 1.15833L181.859 4.0723ZM189.689 4.63976L189.401 1.65364L189.689 4.63976ZM192.299 4.38778L192.011 1.40166L192.299 4.38778ZM200.129 7.0628L199.617 4.10687L200.129 7.0628ZM207.959 6.98272L207.506 9.94827L207.959 6.98272ZM210.569 7.56778L211.419 4.69073V4.69073L210.569 7.56778ZM211.874 7.95335L211.024 10.8304V10.8304L211.874 7.95335ZM213.179 8.33893L212.329 11.216V11.216L213.179 8.33893ZM215.789 8.97519L215.223 11.9213L215.789 8.97519ZM252.329 9.38582L250.822 6.79169L252.329 9.38582ZM254.939 7.86978L253.432 5.27565L254.939 7.86978ZM257.549 7.05083L257.409 4.05409L257.549 7.05083ZM260.159 6.92897L260.299 9.9257L260.159 6.92897ZM265.379 5.1704L264.185 2.41802L265.379 5.1704ZM270.599 6.22416L269.452 8.9963L270.599 6.22416ZM275.819 9.09338L274.285 11.6716L275.819 9.09338ZM301.919 4.07391L300.037 1.73719L301.919 4.07391ZM304.529 3.01548L304.511 0.0155363L304.529 3.01548ZM307.139 3.00009L307.121 0.000144005L307.139 3.00009ZM309.749 3.87033L308.074 6.35947L309.749 3.87033ZM314.969 6.32104L314.552 3.35013L314.969 6.32104ZM317.579 5.95491L317.162 2.984L317.579 5.95491ZM320.189 6.35994L318.956 9.09504L320.189 6.35994ZM322.799 7.53615L324.031 4.80106L322.799 7.53615ZM328.019 7.95057L327.886 4.95352V4.95352L328.019 7.95057ZM330.629 6.99601L328.93 4.52342L330.629 6.99601ZM335.849 4.88345L334.635 7.62689L335.849 4.88345ZM341.069 6.7802L341.444 3.80375L341.069 6.7802ZM342.374 6.94467L341.999 9.92112L342.374 6.94467ZM343.679 7.10913L343.304 10.0856L343.679 7.10913ZM346.289 6.95139L345.57 4.03885L346.289 6.95139ZM348.899 6.30697L349.618 9.21951L348.899 6.30697ZM351.509 5.91997L351.658 8.91627L351.509 5.91997ZM354.119 5.79037L353.97 2.79406L354.119 5.79037ZM356.729 6.19517L355.713 9.01797L356.729 6.19517ZM359.339 7.13435L360.355 4.31154L359.339 7.13435ZM361.949 7.15203L362.931 9.98688L361.949 7.15203ZM364.559 6.24823L363.577 3.41338L364.559 6.24823ZM367.169 5.17845L365.885 2.46701L367.169 5.17845ZM368.474 4.56057L367.19 1.84913L368.474 4.56057ZM369.779 3.9427L371.063 6.65414L369.779 3.9427ZM372.389 5.00466L374.758 3.16418L372.389 5.00466ZM374.999 8.36431L372.63 10.2048L374.999 8.36431ZM377.609 9.28276L376.097 6.69154L377.609 9.28276ZM378.914 8.52138L377.402 5.93016L378.914 8.52138ZM380.219 7.75999L381.731 10.3512L380.219 7.75999ZM382.829 6.05987L384.581 8.49523L382.829 6.05987ZM385.439 4.18238L383.687 1.74701V1.74701L385.439 4.18238ZM388.049 3.29767L387.925 6.2951L388.049 3.29767ZM390.659 3.40574L390.783 0.408305L390.659 3.40574ZM393.269 4.5661L395.209 2.27775L393.269 4.5661ZM395.879 6.77875L393.939 9.0671L395.879 6.77875ZM398.489 7.52444L397.69 4.63283L398.489 7.52444ZM401.099 6.80314L401.898 9.69475L401.099 6.80314ZM403.709 5.63624L405.286 8.18844L403.709 5.63624ZM406.319 4.02374L404.742 1.47154L406.319 4.02374ZM408.929 3.98014L407.415 6.57026L408.929 3.98014ZM411.539 5.50544L413.053 2.91532L411.539 5.50544ZM414.149 6.0716L414.596 9.03817L414.149 6.0716ZM416.759 5.67862L416.312 2.71206L416.759 5.67862ZM424.589 3.73506L424.91 6.71784L424.589 3.73506ZM427.199 3.45415L426.878 0.471375L427.199 3.45415ZM429.809 4.69145L427.631 6.75447L429.809 4.69145ZM432.419 7.44696L434.597 5.38394L432.419 7.44696ZM435.029 7.3607L437.268 9.35691L435.029 7.3607ZM437.639 4.43266L435.399 2.43645L437.639 4.43266ZM440.249 4.47981L437.978 6.44058L440.249 4.47981ZM442.859 7.50214L445.129 5.54137L442.859 7.50214ZM445.469 9.3973L446.316 6.5193L445.469 9.3973ZM448.079 10.1653L447.232 13.0433L448.079 10.1653ZM450.689 9.79595L449.189 7.19777L450.689 9.79595ZM453.299 8.28932L454.799 10.8875L453.299 8.28932ZM458.519 7.57877L458.486 10.5786L458.519 7.57877ZM461.129 7.46065L460.826 4.47597L461.129 7.46065ZM463.739 7.1959L464.042 10.1806L463.739 7.1959ZM466.349 6.18682L468.022 8.67706L466.349 6.18682ZM468.959 4.43342L467.286 1.94318L468.959 4.43342ZM471.569 4.65219L469.64 6.94993L471.569 4.65219ZM474.179 6.84312L476.108 4.54538L474.179 6.84312ZM476.789 6.91421L478.641 9.27403L476.789 6.91421ZM478.094 5.88984L476.242 3.53002L478.094 5.88984ZM479.399 4.86546L477.547 2.50564L479.399 4.86546ZM482.009 4.35686L480.906 7.14685L482.009 4.35686ZM484.619 5.38842L485.722 2.59843L484.619 5.38842ZM487.229 6.91279L489.063 4.53909L487.229 6.91279ZM489.839 8.92997L488.004 11.3037L489.839 8.92997ZM492.449 9.28798L491.11 6.60312L492.449 9.28798ZM495.059 7.98683L496.397 10.6717L495.059 7.98683ZM497.669 7.51835L498.083 4.54714L497.669 7.51835ZM500.279 7.88256L499.864 10.8538L500.279 7.88256ZM502.889 6.95557L500.946 4.66962L502.889 6.95557ZM505.499 4.73737L507.442 7.02332L505.499 4.73737ZM508.109 3.4979L508.407 6.48304L508.109 3.4979ZM510.719 3.23716L510.421 0.252023L510.719 3.23716ZM513.329 3.46211L512.541 6.35673L513.329 3.46211ZM514.634 3.81742L513.846 6.71205L514.634 3.81742ZM515.939 4.17274L515.151 7.06736L515.939 4.17274ZM518.549 4.75495L519.063 1.79929L518.549 4.75495ZM519.854 4.98184L520.368 2.02619L519.854 4.98184ZM521.159 5.20874L520.645 8.1644L521.159 5.20874ZM523.769 5.96697L522.638 8.7455L523.769 5.96697ZM525.074 6.4983L523.943 9.27683V9.27683L525.074 6.4983ZM526.379 7.02964L527.51 4.25111L526.379 7.02964ZM528.989 7.36147L529.442 10.327L528.989 7.36147ZM531.599 6.96246L531.146 3.99692L531.599 6.96246ZM534.209 6.51427L533.647 3.56731L534.209 6.51427ZM536.819 6.0169L537.38 8.96387L536.819 6.0169ZM539.429 6.29768L540.557 3.51777L539.429 6.29768ZM542.039 7.3566L540.911 10.1365L542.039 7.3566ZM544.649 7.80812L544.47 4.81346L544.649 7.80812ZM547.259 7.65223L547.438 10.6469L547.259 7.65223ZM549.869 8.29372L551.317 5.6665L549.869 8.29372ZM552.479 9.73259L551.031 12.3598L552.479 9.73259ZM555.089 9.08822L552.921 7.01414L555.089 9.08822ZM557.699 6.36061L559.866 8.43469L557.699 6.36061ZM560.309 5.30696L561.003 2.38825L560.309 5.30696ZM562.919 5.92725L562.225 8.84596L562.919 5.92725ZM565.529 6.42406L565.104 9.39384L565.529 6.42406ZM568.139 6.79738L568.564 3.8276L568.139 6.79738ZM570.749 7.22176L571.287 4.27033L570.749 7.22176ZM573.359 7.69721L572.821 10.6486L573.359 7.69721ZM575.969 8.24858L575.268 11.1655L575.969 8.24858ZM578.579 8.87587L579.28 5.95893L578.579 8.87587ZM581.189 8.85423L581.935 11.7599L581.189 8.85423ZM583.799 8.18365L583.052 5.27802L583.799 8.18365ZM586.409 7.00032L584.774 4.48481L586.409 7.00032ZM589.019 5.30424L590.654 7.81976L589.019 5.30424ZM591.629 5.85198L593.82 3.80313L591.629 5.85198ZM594.239 8.64355L592.047 10.6924L594.239 8.64355ZM596.849 10.2679L596.331 13.2229L596.849 10.2679ZM599.459 10.7251L599.977 7.77004L599.459 10.7251ZM602.069 9.05548L604.541 10.7551L602.069 9.05548ZM604.679 5.25917L602.207 3.55957V3.55957L604.679 5.25917ZM607.289 3.34469L607.251 0.344928L607.289 3.34469ZM609.899 3.31203L609.936 6.3118L609.899 3.31203ZM612.509 3.47248L612.912 0.49963L612.509 3.47248ZM615.119 3.82603L614.716 6.79888L615.119 3.82603ZM617.729 3.95008L617.608 0.952526V0.952526L617.729 3.95008ZM620.339 3.84463L620.46 6.84219V6.84219L620.339 3.84463ZM622.949 4.11955L623.679 1.20986L622.949 4.11955ZM625.559 4.77484L624.828 7.68453L625.559 4.77484ZM628.169 5.32555L627.663 8.28266L628.169 5.32555ZM630.779 5.77169L631.284 2.81458L630.779 5.77169ZM633.389 5.94498L633.503 8.9428L633.389 5.94498ZM635.999 5.84543L635.885 2.84761L635.999 5.84543ZM638.609 5.55299L638.06 2.60355L638.609 5.55299ZM641.219 5.06765L641.767 8.01709L641.219 5.06765ZM662.099 6.02549L659.791 4.10916L662.099 6.02549ZM664.709 4.95705L663.629 7.75599L664.709 4.95705ZM669.085 6.59251L668.298 9.48762L669.085 6.59251ZM669.545 6.71766L670.42 3.84791L670.376 3.83456L670.332 3.82256L669.545 6.71766ZM670.367 6.96796L669.492 9.83771L669.92 9.96796H670.367V6.96796ZM0.463867 6.96796V9.96796H0.563867V6.96796V3.96796H0.463867V6.96796ZM0.563867 6.96796L-0.000487179 9.9144L2.55951 10.4047L3.12387 7.45829L3.68822 4.51185L1.12822 4.02152L0.563867 6.96796ZM3.12387 7.45829L2.55951 10.4047C4.39058 10.7555 6.30026 10.9027 7.91534 10.3783L6.98887 7.5249L6.0624 4.67155C6.06244 4.67153 6.05921 4.67258 6.05239 4.67439C6.04557 4.67619 6.03543 4.67869 6.0217 4.6816C5.99397 4.68746 5.95352 4.69461 5.89875 4.70122C5.7875 4.71463 5.63098 4.72416 5.42181 4.72056C4.99729 4.71324 4.42671 4.6533 3.68822 4.51185L3.12387 7.45829ZM6.98887 7.5249L7.91534 10.3783L9.22034 9.95453L8.29387 7.10118L7.3674 4.24782L6.0624 4.67155L6.98887 7.5249ZM8.29387 7.10118L9.22034 9.95453L10.5253 9.53081L9.59887 6.67745L8.6724 3.82409L7.3674 4.24782L8.29387 7.10118ZM9.59887 6.67745L10.5253 9.53081C10.9587 9.3901 11.346 9.36532 11.7264 9.42731L12.2089 6.46636L12.6913 3.50541C11.3318 3.28388 9.97906 3.39982 8.6724 3.82409L9.59887 6.67745ZM12.2089 6.46636L11.7264 9.42731L13.0314 9.63995L13.5139 6.679L13.9963 3.71805L12.6913 3.50541L12.2089 6.46636ZM13.5139 6.679L13.0314 9.63995L14.3364 9.85259L14.8189 6.89164L15.3013 3.93069L13.9963 3.71805L13.5139 6.679ZM14.8189 6.89164L14.3364 9.85259C15.44 10.0324 16.5497 10.0803 17.6605 9.99427L17.4289 7.00323L17.1973 4.01218C16.5681 4.0609 15.9378 4.03439 15.3013 3.93069L14.8189 6.89164ZM17.4289 7.00323L17.6605 9.99427L18.9655 9.89322L18.7339 6.90217L18.5023 3.91113L17.1973 4.01218L17.4289 7.00323ZM18.7339 6.90217L18.9655 9.89322L20.2705 9.79216L20.0389 6.80112L19.8073 3.81007L18.5023 3.91113L18.7339 6.90217ZM20.0389 6.80112L20.2705 9.79216C21.5254 9.69499 22.7387 9.36085 23.8989 8.82902L22.6489 6.10188L21.3988 3.37473C20.819 3.64048 20.2923 3.77251 19.8073 3.81007L20.0389 6.80112ZM22.6489 6.10188L23.8989 8.82902L25.2039 8.23083L23.9539 5.50369L22.7038 2.77654L21.3988 3.37473L22.6489 6.10188ZM23.9539 5.50369L25.2039 8.23083L26.5089 7.63265L25.2589 4.9055L24.0088 2.17836L22.7038 2.77654L23.9539 5.50369ZM25.2589 4.9055L26.5089 7.63265C26.9118 7.448 27.212 7.42129 27.4696 7.45588L27.8689 4.48257L28.2682 1.50926C26.7857 1.31018 25.346 1.56543 24.0088 2.17836L25.2589 4.9055ZM27.8689 4.48257L27.4696 7.45588L28.7746 7.63114L29.1739 4.65783L29.5732 1.68452L28.2682 1.50926L27.8689 4.48257ZM29.1739 4.65783L28.7746 7.63114L30.0796 7.80639L30.4789 4.83309L30.8782 1.85978L29.5732 1.68452L29.1739 4.65783ZM30.4789 4.83309L30.0796 7.80639C31.3101 7.97165 32.5404 7.91291 33.7536 7.63727L33.0889 4.71183L32.4242 1.78639C31.8973 1.9061 31.3876 1.92819 30.8782 1.85978L30.4789 4.83309ZM33.0889 4.71183L33.7536 7.63727L35.0586 7.34076L34.3939 4.41532L33.7292 1.48988L32.4242 1.78639L33.0889 4.71183ZM34.3939 4.41532L35.0586 7.34076L36.3636 7.04425L35.6989 4.11881L35.0342 1.19337L33.7292 1.48988L34.3939 4.41532ZM35.6989 4.11881L36.3636 7.04425C36.2952 7.05979 36.2119 7.0676 36.1235 7.06087C36.0362 7.05422 35.9725 7.03557 35.9393 7.02297C35.9086 7.01134 35.9171 7.00995 35.9644 7.04224C36.0125 7.07506 36.0927 7.13735 36.2022 7.24533L38.3089 5.10949L40.4156 2.97364C39.1148 1.69062 37.2512 0.689634 35.0342 1.19337L35.6989 4.11881ZM38.3089 5.10949L36.2022 7.24533L37.5072 8.53252L39.6139 6.39668L41.7206 4.26083L40.4156 2.97364L38.3089 5.10949ZM39.6139 6.39668L37.5072 8.53252L38.8122 9.81971L40.9189 7.68387L43.0256 5.54802L41.7206 4.26083L39.6139 6.39668ZM40.9189 7.68387L38.8122 9.81971C39.5005 10.4987 40.4025 11.1341 41.5353 11.4012C42.7332 11.6837 43.8962 11.4843 44.9018 10.9668L43.5289 8.29937L42.156 5.63196C42.2047 5.60688 42.3094 5.56282 42.4621 5.54153C42.6188 5.51968 42.7752 5.52905 42.9125 5.56143C43.1752 5.6234 43.2072 5.72721 43.0256 5.54802L40.9189 7.68387ZM43.5289 8.29937L44.9018 10.9668L46.2068 10.2951L44.8339 7.62769L43.461 4.96027L42.156 5.63196L43.5289 8.29937ZM44.8339 7.62769L46.2068 10.2951L47.5118 9.62342L46.1389 6.956L44.766 4.28859L43.461 4.96027L44.8339 7.62769ZM46.1389 6.956L47.5118 9.62342C47.4936 9.63277 47.4305 9.66188 47.3272 9.68063C47.2208 9.69994 47.1052 9.70207 46.994 9.6852C46.7683 9.65096 46.7174 9.56594 46.8494 9.67389L48.7489 7.35185L50.6484 5.02981C49.9103 4.42607 48.9895 3.91923 47.8937 3.75304C46.7654 3.58192 45.6962 3.80979 44.766 4.28859L46.1389 6.956ZM48.7489 7.35185L46.8494 9.67389L48.1544 10.7414L50.0539 8.41938L51.9534 6.09734L50.6484 5.02981L48.7489 7.35185ZM50.0539 8.41938L48.1544 10.7414L49.4594 11.809L51.3589 9.48691L53.2584 7.16487L51.9534 6.09734L50.0539 8.41938ZM51.3589 9.48691L49.4594 11.809C50.1829 12.4008 51.0723 12.8986 52.1237 13.0911C53.2072 13.2894 54.2598 13.1253 55.2044 12.6984L53.9689 9.96466L52.7334 7.23089C52.7582 7.21965 52.8213 7.19554 52.9166 7.18272C53.014 7.16963 53.1137 7.17262 53.204 7.18915C53.3855 7.22236 53.4048 7.28469 53.2584 7.16487L51.3589 9.48691ZM53.9689 9.96466L55.2044 12.6984L56.5094 12.1086L55.2739 9.37488L54.0384 6.6411L52.7334 7.23089L53.9689 9.96466ZM55.2739 9.37488L56.5094 12.1086L57.8144 11.5189L56.5789 8.78509L55.3434 6.05132L54.0384 6.6411L55.2739 9.37488ZM56.5789 8.78509L57.8144 11.5189C58.427 11.242 58.9973 11.0868 59.5327 11.025L59.1889 8.04477L58.8451 5.06453C57.6404 5.2035 56.4707 5.54182 55.3434 6.05132L56.5789 8.78509ZM59.1889 8.04477L59.5327 11.025L60.8377 10.8745L60.4939 7.89423L60.1501 4.91399L58.8451 5.06453L59.1889 8.04477ZM60.4939 7.89423L60.8377 10.8745L62.1427 10.7239L61.7989 7.74369L61.4551 4.76346L60.1501 4.91399L60.4939 7.89423ZM61.7989 7.74369L62.1427 10.7239C62.4874 10.6842 62.8604 10.7239 63.3029 10.8994L64.4089 8.11072L65.5149 5.32203C64.2173 4.80743 62.8504 4.60251 61.4551 4.76346L61.7989 7.74369ZM64.4089 8.11072L63.3029 10.8994L64.6079 11.417L65.7139 8.62827L66.8199 5.83958L65.5149 5.32203L64.4089 8.11072ZM65.7139 8.62827L64.6079 11.417L65.9129 11.9345L67.0189 9.14583L68.1249 6.35714L66.8199 5.83958L65.7139 8.62827ZM67.0189 9.14583L65.9129 11.9345C67.0852 12.3995 68.3017 12.6639 69.5492 12.697L69.6289 9.69806L69.7085 6.69912C69.216 6.68604 68.6925 6.58227 68.1249 6.35714L67.0189 9.14583ZM69.6289 9.69806L69.5492 12.697L70.8542 12.7317L70.9339 9.73273L71.0135 6.73379L69.7085 6.69912L69.6289 9.69806ZM70.9339 9.73273L70.8542 12.7317L72.1592 12.7663L72.2389 9.7674L72.3185 6.76846L71.0135 6.73379L70.9339 9.73273ZM72.2389 9.7674L72.1592 12.7663C74.4803 12.828 76.1569 11.3234 77.2326 9.91573L74.8489 8.09425L72.4651 6.27276C72.3209 6.46154 72.1989 6.5969 72.1022 6.69111C72.0053 6.78556 71.9449 6.82795 71.9248 6.84085C71.9062 6.85278 71.935 6.83127 72.0103 6.80813C72.0894 6.78381 72.1961 6.76521 72.3185 6.76846L72.2389 9.7674ZM74.8489 8.09425L77.2326 9.91573L78.5376 8.2079L76.1539 6.38642L73.7701 4.56494L72.4651 6.27276L74.8489 8.09425ZM76.1539 6.38642L78.5376 8.2079L79.8426 6.50007L77.4589 4.67859L75.0751 2.85711L73.7701 4.56494L76.1539 6.38642ZM77.4589 4.67859L79.8426 6.50007C80.0925 6.17303 79.9756 6.49007 79.3998 6.61496C79.0794 6.68447 78.7539 6.65992 78.4789 6.56946C78.2283 6.48701 78.1023 6.37801 78.0935 6.37034L80.0689 4.11245L82.0442 1.85455C81.1285 1.05343 79.7578 0.397785 78.1279 0.751321C76.6821 1.06493 75.6952 2.0456 75.0751 2.85711L77.4589 4.67859ZM80.0689 4.11245L78.0935 6.37034L79.3985 7.51202L81.3739 5.25413L83.3492 2.99624L82.0442 1.85455L80.0689 4.11245ZM81.3739 5.25413L79.3985 7.51202L80.7035 8.65371L82.6789 6.39581L84.6542 4.13792L83.3492 2.99624L81.3739 5.25413ZM82.6789 6.39581L80.7035 8.65371C81.4908 9.34242 82.5694 9.94736 83.9037 9.98302C85.2512 10.019 86.3676 9.46179 87.1931 8.78377L85.2889 6.46556L83.3847 4.14736C83.3401 4.18395 83.5865 3.9724 84.064 3.98516C84.5283 3.99757 84.737 4.21033 84.6542 4.13792L82.6789 6.39581ZM85.2889 6.46556L87.1931 8.78377L88.4981 7.71183L86.5939 5.39363L84.6897 3.07542L83.3847 4.14736L85.2889 6.46556ZM86.5939 5.39363L88.4981 7.71183L89.8031 6.6399L87.8989 4.32169L85.9947 2.00349L84.6897 3.07542L86.5939 5.39363ZM87.8989 4.32169L89.8031 6.6399C89.7731 6.6645 89.6211 6.78177 89.3442 6.85766C89.0433 6.94009 88.7138 6.94023 88.4127 6.85791C88.1355 6.78212 87.9832 6.66478 87.953 6.63999C87.9257 6.61759 87.9752 6.6528 88.0868 6.80549L90.5089 5.03526L92.9309 3.26502C92.3303 2.44321 91.387 1.45088 89.995 1.07032C88.3874 0.630792 86.9723 1.2005 85.9947 2.00349L87.8989 4.32169ZM90.5089 5.03526L88.0868 6.80549L89.3918 8.591L91.8139 6.82076L94.2359 5.05053L92.9309 3.26502L90.5089 5.03526ZM91.8139 6.82076L89.3918 8.591L90.6968 10.3765L93.1189 8.60626L95.5409 6.83603L94.2359 5.05053L91.8139 6.82076ZM93.1189 8.60626L90.6968 10.3765C91.2942 11.1938 92.1885 12.1339 93.4761 12.5626C94.9655 13.0586 96.381 12.6833 97.4529 11.9305L95.7289 9.47535L94.0048 7.02023C94.0703 6.97426 94.2483 6.86687 94.5317 6.81455C94.831 6.75928 95.1267 6.78835 95.3717 6.86994C95.5966 6.94484 95.7091 7.03991 95.7151 7.045C95.7197 7.04889 95.6575 6.99561 95.5409 6.83603L93.1189 8.60626ZM95.7289 9.47535L97.4529 11.9305L98.7579 11.014L97.0339 8.55893L95.3098 6.10382L94.0048 7.02023L95.7289 9.47535ZM97.0339 8.55893L98.7579 11.014L100.063 10.0976L98.3389 7.64252L96.6148 5.1874L95.3098 6.10382L97.0339 8.55893ZM98.3389 7.64252L100.063 10.0976C100.143 10.0411 100.055 10.1256 99.8247 10.1395C99.717 10.146 99.6184 10.1337 99.54 10.1133C99.4648 10.0937 99.431 10.0727 99.4408 10.0784L100.949 7.48494L102.457 4.89152C101.592 4.38856 100.575 4.08321 99.4631 4.15037C98.3631 4.21677 97.4043 4.63297 96.6148 5.1874L98.3389 7.64252ZM100.949 7.48494L99.4408 10.0784L100.746 10.8372L102.254 8.24378L103.762 5.65036L102.457 4.89152L100.949 7.48494ZM102.254 8.24378L100.746 10.8372L102.051 11.596L103.559 9.00262L105.067 6.40921L103.762 5.65036L102.254 8.24378ZM103.559 9.00262L102.051 11.596C103.031 12.1663 104.211 12.444 105.464 12.1881C106.649 11.9463 107.582 11.2923 108.279 10.6017L106.169 8.46965L104.058 6.33759C103.886 6.50817 103.949 6.37366 104.264 6.30946C104.426 6.27626 104.601 6.27455 104.767 6.30587C104.928 6.33607 105.029 6.38737 105.067 6.40921L103.559 9.00262ZM106.169 8.46965L108.279 10.6017L109.584 9.30989L107.474 7.17783L105.363 5.04577L104.058 6.33759L106.169 8.46965ZM107.474 7.17783L109.584 9.30989L110.889 8.01808L108.779 5.88602L106.668 3.75396L105.363 5.04577L107.474 7.17783ZM108.779 5.88602L110.889 8.01808C111.045 7.86417 110.929 8.04828 110.531 8.10821C110.33 8.13859 110.13 8.12369 109.958 8.0774C109.794 8.03353 109.704 7.97472 109.688 7.96365L111.389 5.49252L113.09 3.02139C112.161 2.38186 110.971 1.97414 109.637 2.17526C108.369 2.36636 107.383 3.04666 106.668 3.75396L108.779 5.88602ZM111.389 5.49252L109.688 7.96365L110.993 8.86196L112.694 6.39083L114.395 3.9197L113.09 3.02139L111.389 5.49252ZM112.694 6.39083L110.993 8.86196L112.298 9.76028L113.999 7.28915L115.7 4.81802L114.395 3.9197L112.694 6.39083ZM113.999 7.28915L112.298 9.76028C113.643 10.6862 115.237 11.2189 116.979 11.0021L116.609 8.02504L116.238 5.04801C116.213 5.0512 116.18 5.0524 116.118 5.03485C116.048 5.01503 115.909 4.96173 115.7 4.81802L113.999 7.28915ZM116.609 8.02504L116.979 11.0021L118.284 10.8396L117.914 7.86261L117.543 4.88558L116.238 5.04801L116.609 8.02504ZM117.914 7.86261L118.284 10.8396L119.589 10.6772L119.219 7.70019L118.848 4.72316L117.543 4.88558L117.914 7.86261ZM119.219 7.70019L119.589 10.6772C121.099 10.4893 122.455 9.83783 123.644 8.93462L121.829 6.54605L120.014 4.15749C119.462 4.57656 119.079 4.69449 118.848 4.72316L119.219 7.70019ZM121.829 6.54605L123.644 8.93462L124.949 7.9429L123.134 5.55434L121.319 3.16578L120.014 4.15749L121.829 6.54605ZM123.134 5.55434L124.949 7.9429L126.254 6.95119L124.439 4.56263L122.624 2.17406L121.319 3.16578L123.134 5.55434ZM124.439 4.56263L126.254 6.95119C126.255 6.95045 125.976 7.14762 125.503 7.10959C125.068 7.07459 124.901 6.87292 125.017 6.97946L127.049 4.77249L129.081 2.56552C128.327 1.87101 127.29 1.23384 125.984 1.12889C124.641 1.0209 123.493 1.51366 122.624 2.17406L124.439 4.56263ZM127.049 4.77249L125.017 6.97946L126.322 8.18103L128.354 5.97406L130.386 3.76709L129.081 2.56552L127.049 4.77249ZM128.354 5.97406L126.322 8.18103L127.627 9.38261L129.659 7.17564L131.691 4.96867L130.386 3.76709L128.354 5.97406ZM129.659 7.17564L127.627 9.38261C129.007 10.6532 130.938 11.5165 133.129 10.8607L132.269 7.98666L131.409 5.11261C131.463 5.09628 131.541 5.08195 131.634 5.08248C131.726 5.083 131.802 5.09819 131.854 5.1143C131.951 5.14431 131.893 5.1543 131.691 4.96867L129.659 7.17564ZM132.269 7.98666L133.129 10.8607L134.434 10.4702L133.574 7.5961L132.714 4.72205L131.409 5.11261L132.269 7.98666ZM133.574 7.5961L134.434 10.4702L135.739 10.0796L134.879 7.20554L134.019 4.33149L132.714 4.72205L133.574 7.5961ZM134.879 7.20554L135.739 10.0796C136.306 9.91004 136.845 9.84352 137.37 9.86432L137.489 6.86667L137.608 3.86902C136.393 3.8209 135.192 3.98031 134.019 4.33149L134.879 7.20554ZM137.489 6.86667L137.37 9.86432L138.675 9.916L138.794 6.91834L138.913 3.92069L137.608 3.86902L137.489 6.86667ZM138.794 6.91834L138.675 9.916L139.98 9.96767L140.099 6.97002L140.218 3.97237L138.913 3.92069L138.794 6.91834ZM140.099 6.97002L139.98 9.96767C140.125 9.9734 140.432 10.0286 140.936 10.3978L142.709 7.97776L144.482 5.55772C143.246 4.65219 141.813 4.03555 140.218 3.97237L140.099 6.97002ZM142.709 7.97776L140.936 10.3978L142.241 11.3539L144.014 8.93382L145.787 6.51378L144.482 5.55772L142.709 7.97776ZM144.014 8.93382L142.241 11.3539L143.546 12.3099L145.319 9.88989L147.092 7.46984L145.787 6.51378L144.014 8.93382ZM145.319 9.88989L143.546 12.3099C144.355 12.9029 145.369 13.3538 146.549 13.3833C147.735 13.4131 148.777 13.0086 149.62 12.4333L147.929 9.95535L146.238 7.4774C146.211 7.49579 146.383 7.37729 146.699 7.38523C147.009 7.39299 147.152 7.5142 147.092 7.46984L145.319 9.88989ZM147.929 9.95535L149.62 12.4333L150.925 11.5427L149.234 9.06475L147.543 6.5868L146.238 7.4774L147.929 9.95535ZM149.234 9.06475L150.925 11.5427L152.23 10.6521L150.539 8.17415L148.848 5.6962L147.543 6.5868L149.234 9.06475ZM150.539 8.17415L152.23 10.6521C152.362 10.5621 152.373 10.5886 152.276 10.6028C152.229 10.6095 152.178 10.6102 152.13 10.6042C152.107 10.6014 152.088 10.5976 152.075 10.5941C152.061 10.5906 152.055 10.588 152.055 10.5881L153.149 7.79464L154.243 5.00122C152.32 4.24828 150.415 4.62644 148.848 5.6962L150.539 8.17415ZM153.149 7.79464L152.055 10.5881L153.36 11.0991L154.454 8.30572L155.548 5.5123L154.243 5.00122L153.149 7.79464ZM154.454 8.30572L153.36 11.0991L154.665 11.6102L155.759 8.8168L156.853 6.02338L155.548 5.5123L154.454 8.30572ZM155.759 8.8168L154.665 11.6102C156.51 12.3327 158.368 12.0497 159.952 11.0654L158.369 8.51714L156.786 5.96887C156.723 6.00768 156.688 6.0216 156.68 6.02451C156.674 6.02696 156.689 6.02079 156.722 6.017C156.755 6.01312 156.791 6.01369 156.823 6.01805C156.853 6.0223 156.865 6.02796 156.853 6.02338L155.759 8.8168ZM158.369 8.51714L159.952 11.0654L161.257 10.2547L159.674 7.70641L158.091 5.15813L156.786 5.96887L158.369 8.51714ZM159.674 7.70641L161.257 10.2547L162.562 9.44395L160.979 6.89568L159.396 4.3474L158.091 5.15813L159.674 7.70641ZM160.979 6.89568L162.562 9.44395C162.626 9.40423 162.663 9.38919 162.673 9.38534C162.683 9.38195 162.67 9.38744 162.64 9.39105C162.626 9.39277 162.61 9.39376 162.593 9.39367C162.576 9.39357 162.56 9.39238 162.546 9.39057C162.517 9.38676 162.507 9.38152 162.518 9.38596L163.589 6.58354L164.66 3.78111C162.818 3.07749 160.971 3.36901 159.396 4.3474L160.979 6.89568ZM163.589 6.58354L162.518 9.38596L163.823 9.88456L164.894 7.08213L165.965 4.2797L164.66 3.78111L163.589 6.58354ZM164.894 7.08213L163.823 9.88456L165.128 10.3831L166.199 7.58072L167.27 4.7783L165.965 4.2797L164.894 7.08213ZM166.199 7.58072L165.128 10.3831C166.308 10.8339 167.531 11.0797 168.782 11.0909L168.809 8.09099L168.836 5.09111C168.347 5.08674 167.83 4.99233 167.27 4.7783L166.199 7.58072ZM168.809 8.09099L168.782 11.0909L170.087 11.1025L170.114 8.10267L170.141 5.10279L168.836 5.09111L168.809 8.09099ZM170.114 8.10267L170.087 11.1025L171.392 11.1142L171.419 8.11434L171.446 5.11446L170.141 5.10279L170.114 8.10267ZM171.419 8.11434L171.392 11.1142C172.893 11.1277 174.296 10.6817 175.559 9.93261L174.029 7.35218L172.499 4.77174C172.022 5.05443 171.684 5.1166 171.446 5.11446L171.419 8.11434ZM174.029 7.35218L175.559 9.93261L176.864 9.15877L175.334 6.57833L173.804 3.9979L172.499 4.77174L174.029 7.35218ZM175.334 6.57833L176.864 9.15877L178.169 8.38492L176.639 5.80449L175.109 3.22406L173.804 3.9979L175.334 6.57833ZM176.639 5.80449L178.169 8.38492C178.817 8.00068 179.414 7.75941 179.962 7.62516L179.249 4.7112L178.536 1.79723C177.344 2.08892 176.201 2.57651 175.109 3.22406L176.639 5.80449ZM179.249 4.7112L179.962 7.62516L181.267 7.30571L180.554 4.39175L179.841 1.47778L178.536 1.79723L179.249 4.7112ZM180.554 4.39175L181.267 7.30571L182.572 6.98626L181.859 4.0723L181.146 1.15833L179.841 1.47778L180.554 4.39175ZM181.859 4.0723L182.572 6.98626C183.026 6.87521 183.458 6.86579 183.897 6.95114L184.469 4.00607L185.04 1.06101C183.74 0.808723 182.432 0.843451 181.146 1.15833L181.859 4.0723ZM184.469 4.00607L183.897 6.95114L185.202 7.20437L185.774 4.2593L186.345 1.31423L185.04 1.06101L184.469 4.00607ZM185.774 4.2593L185.202 7.20437L186.507 7.45759L187.079 4.51253L187.65 1.56746L186.345 1.31423L185.774 4.2593ZM187.079 4.51253L186.507 7.45759C187.657 7.68057 188.816 7.73797 189.977 7.62588L189.689 4.63976L189.401 1.65364C188.822 1.70953 188.241 1.68211 187.65 1.56746L187.079 4.51253ZM189.689 4.63976L189.977 7.62588L191.282 7.49989L190.994 4.51377L190.706 1.52765L189.401 1.65364L189.689 4.63976ZM190.994 4.51377L191.282 7.49989L192.587 7.3739L192.299 4.38778L192.011 1.40166L190.706 1.52765L190.994 4.51377ZM192.299 4.38778L192.587 7.3739C192.742 7.35891 192.992 7.37462 193.404 7.61377L194.909 5.01859L196.414 2.42341C195.086 1.6535 193.595 1.24867 192.011 1.40166L192.299 4.38778ZM194.909 5.01859L193.404 7.61377L194.709 8.37057L196.214 5.77538L197.719 3.1802L196.414 2.42341L194.909 5.01859ZM196.214 5.77538L194.709 8.37057L196.014 9.12736L197.519 6.53218L199.024 3.937L197.719 3.1802L196.214 5.77538ZM197.519 6.53218L196.014 9.12736C197.403 9.93316 198.981 10.3064 200.641 10.0187L200.129 7.0628L199.617 4.10687C199.536 4.12078 199.374 4.14026 199.024 3.937L197.519 6.53218ZM200.129 7.0628L200.641 10.0187L201.946 9.79255L201.434 6.83662L200.922 3.88069L199.617 4.10687L200.129 7.0628ZM201.434 6.83662L201.946 9.79255L203.251 9.56637L202.739 6.61044L202.227 3.65451L200.922 3.88069L201.434 6.83662ZM202.739 6.61044L203.251 9.56637C203.803 9.47074 204.347 9.46543 204.896 9.5493L205.349 6.58375L205.802 3.6182C204.611 3.43608 203.415 3.44858 202.227 3.65451L202.739 6.61044ZM205.349 6.58375L204.896 9.5493L206.201 9.74879L206.654 6.78323L207.107 3.81768L205.802 3.6182L205.349 6.58375ZM206.654 6.78323L206.201 9.74879L207.506 9.94827L207.959 6.98272L208.412 4.01717L207.107 3.81768L206.654 6.78323ZM207.959 6.98272L207.506 9.94827C208.237 10.0601 208.975 10.225 209.719 10.4448L210.569 7.56778L211.419 4.69073C210.423 4.39642 209.42 4.17127 208.412 4.01717L207.959 6.98272ZM210.569 7.56778L209.719 10.4448L211.024 10.8304L211.874 7.95335L212.724 5.07631L211.419 4.69073L210.569 7.56778ZM211.874 7.95335L211.024 10.8304L212.329 11.216L213.179 8.33893L214.029 5.46188L212.724 5.07631L211.874 7.95335ZM213.179 8.33893L212.329 11.216C213.29 11.5 214.255 11.7354 215.223 11.9213L215.789 8.97519L216.355 6.02905C215.583 5.88076 214.808 5.69196 214.029 5.46188L213.179 8.33893ZM215.789 8.97519L215.223 11.9213L216.528 12.172L217.094 9.22587L217.66 6.27974L216.355 6.02905L215.789 8.97519ZM217.094 9.22587L216.528 12.172L217.833 12.4227L218.399 9.47656L218.965 6.53042L217.66 6.27974L217.094 9.22587ZM218.399 9.47656L217.833 12.4227C218.799 12.6083 219.767 12.7453 220.738 12.8335L221.009 9.84575L221.28 6.85805C220.51 6.78814 219.739 6.67909 218.965 6.53042L218.399 9.47656ZM221.009 9.84575L220.738 12.8335L222.043 12.952L222.314 9.96426L222.585 6.97656L221.28 6.85805L221.009 9.84575ZM222.314 9.96426L222.043 12.952L223.348 13.0705L223.619 10.0828L223.89 7.09507L222.585 6.97656L222.314 9.96426ZM223.619 10.0828L223.348 13.0705C224.431 13.1689 225.516 13.1508 226.598 13.0168L226.229 10.0396L225.86 7.06236C225.202 7.14393 224.546 7.15465 223.89 7.09507L223.619 10.0828ZM226.229 10.0396L226.598 13.0168L227.903 12.8551L227.534 9.8779L227.165 6.90066L225.86 7.06236L226.229 10.0396ZM227.534 9.8779L227.903 12.8551L229.208 12.6934L228.839 9.7162L228.47 6.73897L227.165 6.90066L227.534 9.8779ZM228.839 9.7162L229.208 12.6934C230.059 12.5879 230.91 12.4906 231.762 12.4013L231.449 9.41768L231.136 6.43403C230.247 6.52722 229.359 6.62886 228.47 6.73897L228.839 9.7162ZM231.449 9.41768L231.762 12.4013L233.067 12.2645L232.754 9.28085L232.441 6.2972L231.136 6.43403L231.449 9.41768ZM232.754 9.28085L233.067 12.2645L234.372 12.1277L234.059 9.14402L233.746 6.16038L232.441 6.2972L232.754 9.28085ZM234.059 9.14402L234.372 12.1277C234.972 12.0647 235.573 12.0824 236.18 12.1827L236.669 9.22284L237.158 6.26297C236.025 6.07577 234.885 6.04092 233.746 6.16038L234.059 9.14402ZM236.669 9.22284L236.18 12.1827L237.485 12.3983L237.974 9.43848L238.463 6.47862L237.158 6.26297L236.669 9.22284ZM237.974 9.43848L237.485 12.3983L238.79 12.614L239.279 9.65412L239.768 6.69426L238.463 6.47862L237.974 9.43848ZM239.279 9.65412L238.79 12.614C240.249 12.8551 241.684 12.6612 243.034 12.1032L241.889 9.33058L240.743 6.55792C240.354 6.71889 240.049 6.74065 239.768 6.69426L239.279 9.65412ZM241.889 9.33058L243.034 12.1032L244.339 11.5641L243.194 8.7914L242.048 6.01874L240.743 6.55792L241.889 9.33058ZM243.194 8.7914L244.339 11.5641L245.644 11.0249L244.499 8.25222L243.353 5.47955L242.048 6.01874L243.194 8.7914ZM244.499 8.25222L245.644 11.0249C245.688 11.007 245.713 11.0013 245.721 10.9997C245.729 10.9982 245.729 10.9988 245.725 10.9987C245.721 10.9986 245.725 10.9981 245.74 11.0017C245.755 11.0055 245.789 11.0155 245.842 11.0403L247.109 8.32073L248.375 5.60115C246.761 4.84943 245.016 4.79243 243.353 5.47955L244.499 8.25222ZM247.109 8.32073L245.842 11.0403L247.147 11.648L248.414 8.92843L249.68 6.20885L248.375 5.60115L247.109 8.32073ZM248.414 8.92843L247.147 11.648L248.452 12.2557L249.719 9.53614L250.985 6.81655L249.68 6.20885L248.414 8.92843ZM249.719 9.53614L248.452 12.2557C250.262 13.0982 252.166 12.9498 253.836 11.9799L252.329 9.38582L250.822 6.79169C250.774 6.81973 250.755 6.82455 250.764 6.82155C250.775 6.81809 250.806 6.81 250.851 6.80737C250.898 6.80471 250.94 6.80875 250.971 6.81519C251.001 6.82137 251.007 6.82665 250.985 6.81655L249.719 9.53614ZM252.329 9.38582L253.836 11.9799L255.141 11.2219L253.634 8.6278L252.127 6.03367L250.822 6.79169L252.329 9.38582ZM253.634 8.6278L255.141 11.2219L256.446 10.4639L254.939 7.86978L253.432 5.27565L252.127 6.03367L253.634 8.6278ZM254.939 7.86978L256.446 10.4639C256.964 10.1629 257.37 10.0624 257.689 10.0476L257.549 7.05083L257.409 4.05409C255.988 4.12045 254.654 4.56599 253.432 5.27565L254.939 7.86978ZM257.549 7.05083L257.689 10.0476L258.994 9.98663L258.854 6.9899L258.714 3.99316L257.409 4.05409L257.549 7.05083ZM258.854 6.9899L258.994 9.98663L260.299 9.9257L260.159 6.92897L260.019 3.93223L258.714 3.99316L258.854 6.9899ZM260.159 6.92897L260.299 9.9257C261.563 9.86668 262.789 9.56352 263.962 9.05453L262.769 6.30216L261.575 3.54978C261.009 3.7953 260.495 3.91001 260.019 3.93223L260.159 6.92897ZM262.769 6.30216L263.962 9.05453L265.267 8.48865L264.074 5.73628L262.88 2.9839L261.575 3.54978L262.769 6.30216ZM264.074 5.73628L265.267 8.48865L266.572 7.92277L265.379 5.1704L264.185 2.41802L262.88 2.9839L264.074 5.73628ZM265.379 5.1704L266.572 7.92277C266.626 7.89963 266.661 7.88972 266.681 7.88539C266.7 7.8812 266.71 7.88085 266.714 7.88081C266.718 7.88077 266.726 7.88093 266.743 7.88425C266.76 7.88768 266.792 7.89597 266.842 7.91654L267.989 5.1444L269.136 2.37226C267.509 1.6993 265.795 1.72023 264.185 2.41802L265.379 5.1704ZM267.989 5.1444L266.842 7.91654L268.147 8.45642L269.294 5.68428L270.441 2.91214L269.136 2.37226L267.989 5.1444ZM269.294 5.68428L268.147 8.45642L269.452 8.9963L270.599 6.22416L271.746 3.45202L270.441 2.91214L269.294 5.68428ZM270.599 6.22416L269.452 8.9963C270.179 9.29703 270.92 9.66945 271.675 10.1187L273.209 7.54049L274.743 4.96232C273.758 4.37627 272.759 3.87114 271.746 3.45202L270.599 6.22416ZM273.209 7.54049L271.675 10.1187L272.98 10.8951L274.514 8.31694L276.048 5.73876L274.743 4.96232L273.209 7.54049ZM274.514 8.31694L272.98 10.8951L274.285 11.6716L275.819 9.09338L277.353 6.51521L276.048 5.73876L274.514 8.31694ZM275.819 9.09338L274.285 11.6716C275.441 12.3595 276.68 12.8368 277.992 13.03L278.429 10.062L278.866 7.09405C278.438 7.03096 277.937 6.86254 277.353 6.51521L275.819 9.09338ZM278.429 10.062L277.992 13.03L279.297 13.2222L279.734 10.2542L280.171 7.28624L278.866 7.09405L278.429 10.062ZM279.734 10.2542L279.297 13.2222L280.602 13.4144L281.039 10.4464L281.476 7.47844L280.171 7.28624L279.734 10.2542ZM281.039 10.4464L280.602 13.4144C281.991 13.6189 283.363 13.4603 284.675 12.9827L283.649 10.1636L282.623 7.34456C282.195 7.50024 281.827 7.53017 281.476 7.47844L281.039 10.4464ZM283.649 10.1636L284.675 12.9827L285.98 12.5077L284.954 9.68863L283.928 6.86956L282.623 7.34456L283.649 10.1636ZM284.954 9.68863L285.98 12.5077L287.285 12.0327L286.259 9.21364L285.233 6.39457L283.928 6.86956L284.954 9.68863ZM286.259 9.21364L287.285 12.0327C288.005 11.7707 288.713 11.5779 289.41 11.4498L288.869 8.49911L288.327 5.5484C287.285 5.73973 286.253 6.02323 285.233 6.39457L286.259 9.21364ZM288.869 8.49911L289.41 11.4498L290.715 11.2103L290.174 8.25958L289.632 5.30887L288.327 5.5484L288.869 8.49911ZM290.174 8.25958L290.715 11.2103L292.02 10.9708L291.479 8.02005L290.937 5.06934L289.632 5.30887L290.174 8.25958ZM291.479 8.02005L292.02 10.9708C292.817 10.8246 293.612 10.7095 294.406 10.6251L294.089 7.64191L293.772 4.65869C292.826 4.75918 291.881 4.89613 290.937 5.06934L291.479 8.02005ZM294.089 7.64191L294.406 10.6251L295.711 10.4865L295.394 7.5033L295.077 4.52008L293.772 4.65869L294.089 7.64191ZM295.394 7.5033L295.711 10.4865L297.016 10.3479L296.699 7.36469L296.382 4.38147L295.077 4.52008L295.394 7.5033ZM296.699 7.36469L297.016 10.3479C298.598 10.1799 299.995 9.47473 301.19 8.51208L299.309 6.17536L297.427 3.83864C296.883 4.27696 296.54 4.36468 296.382 4.38147L296.699 7.36469ZM299.309 6.17536L301.19 8.51208L302.495 7.46135L300.614 5.12463L298.732 2.78791L297.427 3.83864L299.309 6.17536ZM300.614 5.12463L302.495 7.46135L303.8 6.41063L301.919 4.07391L300.037 1.73719L298.732 2.78791L300.614 5.12463ZM301.919 4.07391L303.8 6.41063C304.294 6.01321 304.527 6.01555 304.547 6.01543L304.529 3.01548L304.511 0.0155363C302.791 0.0256844 301.284 0.73364 300.037 1.73719L301.919 4.07391ZM304.529 3.01548L304.547 6.01543L305.852 6.00774L305.834 3.00779L305.816 0.00784016L304.511 0.0155363L304.529 3.01548ZM305.834 3.00779L305.852 6.00774L307.157 6.00004L307.139 3.00009L307.121 0.000144005L305.816 0.00784016L305.834 3.00779ZM307.139 3.00009L307.157 6.00004C307.31 5.99914 307.6 6.04043 308.074 6.35947L309.749 3.87033L311.423 1.38118C310.158 0.529651 308.708 -0.00921535 307.121 0.000144005L307.139 3.00009ZM309.749 3.87033L308.074 6.35947L309.379 7.2374L311.054 4.74825L312.728 2.25911L311.423 1.38118L309.749 3.87033ZM311.054 4.74825L309.379 7.2374L310.684 8.11533L312.359 5.62618L314.033 3.13704L312.728 2.25911L311.054 4.74825ZM312.359 5.62618L310.684 8.11533C312.043 9.02927 313.646 9.53599 315.386 9.29195L314.969 6.32104L314.552 3.35013C314.552 3.35019 314.415 3.39367 314.033 3.13704L312.359 5.62618ZM314.969 6.32104L315.386 9.29195L316.691 9.10889L316.274 6.13798L315.857 3.16707L314.552 3.35013L314.969 6.32104ZM316.274 6.13798L316.691 9.10889L317.996 8.92582L317.579 5.95491L317.162 2.984L315.857 3.16707L316.274 6.13798ZM317.579 5.95491L317.996 8.92582C318.256 8.88924 318.557 8.91487 318.956 9.09504L320.189 6.35994L321.421 3.62485C320.081 3.02088 318.641 2.77648 317.162 2.984L317.579 5.95491ZM320.189 6.35994L318.956 9.09504L320.261 9.68314L321.494 6.94805L322.726 4.21295L321.421 3.62485L320.189 6.35994ZM321.494 6.94805L320.261 9.68314L321.566 10.2712L322.799 7.53615L324.031 4.80106L322.726 4.21295L321.494 6.94805ZM322.799 7.53615L321.566 10.2712C322.823 10.8376 324.159 11.1248 325.542 11.0634L325.409 8.06636L325.276 5.06931C324.919 5.08514 324.515 5.01888 324.031 4.80106L322.799 7.53615ZM325.409 8.06636L325.542 11.0634L326.847 11.0055L326.714 8.00846L326.581 5.01141L325.276 5.06931L325.409 8.06636ZM326.714 8.00846L326.847 11.0055L328.152 10.9476L328.019 7.95057L327.886 4.95352L326.581 5.01141L326.714 8.00846ZM328.019 7.95057L328.152 10.9476C329.691 10.8793 331.094 10.3165 332.328 9.4686L330.629 6.99601L328.93 4.52342C328.424 4.87107 328.087 4.94461 327.886 4.95352L328.019 7.95057ZM330.629 6.99601L332.328 9.4686L333.633 8.57194L331.934 6.09935L330.235 3.62676L328.93 4.52342L330.629 6.99601ZM331.934 6.09935L333.633 8.57194L334.938 7.67527L333.239 5.20268L331.54 2.73009L330.235 3.62676L331.934 6.09935ZM333.239 5.20268L334.938 7.67527C335.056 7.59433 335.041 7.63614 334.908 7.65235C334.845 7.66003 334.781 7.6585 334.722 7.64915C334.665 7.64005 334.635 7.62686 334.635 7.62689L335.849 4.88345L337.063 2.14001C335.122 1.28142 333.156 1.61984 331.54 2.73009L333.239 5.20268ZM335.849 4.88345L334.635 7.62689L335.94 8.20432L337.154 5.46088L338.368 2.71744L337.063 2.14001L335.849 4.88345ZM337.154 5.46088L335.94 8.20432L337.245 8.78175L338.459 6.03831L339.673 3.29487L338.368 2.71744L337.154 5.46088ZM338.459 6.03831L337.245 8.78175C338.359 9.27477 339.511 9.60758 340.694 9.75666L341.069 6.7802L341.444 3.80375C340.887 3.73354 340.299 3.57175 339.673 3.29487L338.459 6.03831ZM341.069 6.7802L340.694 9.75666L341.999 9.92112L342.374 6.94467L342.749 3.96821L341.444 3.80375L341.069 6.7802ZM342.374 6.94467L341.999 9.92112L343.304 10.0856L343.679 7.10913L344.054 4.13267L342.749 3.96821L342.374 6.94467ZM343.679 7.10913L343.304 10.0856C344.547 10.2423 345.788 10.1651 347.008 9.86392L346.289 6.95139L345.57 4.03885C345.049 4.16731 344.55 4.19522 344.054 4.13267L343.679 7.10913ZM346.289 6.95139L347.008 9.86392L348.313 9.54171L347.594 6.62918L346.875 3.71664L345.57 4.03885L346.289 6.95139ZM347.594 6.62918L348.313 9.54171L349.618 9.21951L348.899 6.30697L348.18 3.39443L346.875 3.71664L347.594 6.62918ZM348.899 6.30697L349.618 9.21951C350.306 9.04954 350.985 8.94965 351.658 8.91627L351.509 5.91997L351.36 2.92366C350.292 2.97668 349.231 3.13479 348.18 3.39443L348.899 6.30697ZM351.509 5.91997L351.658 8.91627L352.963 8.85148L352.814 5.85517L352.665 2.85886L351.36 2.92366L351.509 5.91997ZM352.814 5.85517L352.963 8.85148L354.268 8.78668L354.119 5.79037L353.97 2.79406L352.665 2.85886L352.814 5.85517ZM354.119 5.79037L354.268 8.78668C354.718 8.76433 355.193 8.83074 355.713 9.01797L356.729 6.19517L357.745 3.37236C356.525 2.93348 355.26 2.73002 353.97 2.79406L354.119 5.79037ZM356.729 6.19517L355.713 9.01797L357.018 9.48756L358.034 6.66476L359.05 3.84195L357.745 3.37236L356.729 6.19517ZM358.034 6.66476L357.018 9.48756L358.323 9.95715L359.339 7.13435L360.355 4.31154L359.05 3.84195L358.034 6.66476ZM359.339 7.13435L358.323 9.95715C359.835 10.5012 361.41 10.5135 362.931 9.98688L361.949 7.15203L360.967 4.31719C360.748 4.39315 360.583 4.39362 360.355 4.31154L359.339 7.13435ZM361.949 7.15203L362.931 9.98688L364.236 9.53497L363.254 6.70013L362.272 3.86529L360.967 4.31719L361.949 7.15203ZM363.254 6.70013L364.236 9.53497L365.541 9.08307L364.559 6.24823L363.577 3.41338L362.272 3.86529L363.254 6.70013ZM364.559 6.24823L365.541 9.08307C366.518 8.74461 367.489 8.34629 368.453 7.88989L367.169 5.17845L365.885 2.46701C365.109 2.83444 364.34 3.14931 363.577 3.41338L364.559 6.24823ZM367.169 5.17845L368.453 7.88989L369.758 7.27201L368.474 4.56057L367.19 1.84913L365.885 2.46701L367.169 5.17845ZM368.474 4.56057L369.758 7.27201L371.063 6.65414L369.779 3.9427L368.495 1.23126L367.19 1.84913L368.474 4.56057ZM369.779 3.9427L371.063 6.65414C370.949 6.70809 370.765 6.76792 370.531 6.77571C370.295 6.78357 370.095 6.73559 369.953 6.67804C369.822 6.62467 369.772 6.57587 369.797 6.59749C369.824 6.61965 369.9 6.69132 370.02 6.84513L372.389 5.00466L374.758 3.16418C374.152 2.38402 373.325 1.5723 372.215 1.12046C370.979 0.617809 369.668 0.675701 368.495 1.23126L369.779 3.9427ZM372.389 5.00466L370.02 6.84513L371.325 8.52496L373.694 6.68448L376.063 4.844L374.758 3.16418L372.389 5.00466ZM373.694 6.68448L371.325 8.52496L372.63 10.2048L374.999 8.36431L377.368 6.52383L376.063 4.844L373.694 6.68448ZM374.999 8.36431L372.63 10.2048C373.242 10.9931 374.111 11.8426 375.308 12.2637C376.656 12.7382 378.005 12.5252 379.121 11.874L377.609 9.28276L376.097 6.69154C376.184 6.64077 376.36 6.55988 376.611 6.53078C376.87 6.50079 377.111 6.53749 377.3 6.60394C377.627 6.71897 377.626 6.85536 377.368 6.52383L374.999 8.36431ZM377.609 9.28276L379.121 11.874L380.426 11.1126L378.914 8.52138L377.402 5.93016L376.097 6.69154L377.609 9.28276ZM378.914 8.52138L380.426 11.1126L381.731 10.3512L380.219 7.75999L378.707 5.16877L377.402 5.93016L378.914 8.52138ZM380.219 7.75999L381.731 10.3512C382.688 9.79258 383.638 9.17329 384.581 8.49523L382.829 6.05987L381.077 3.6245C380.28 4.19811 379.49 4.71223 378.707 5.16877L380.219 7.75999ZM382.829 6.05987L384.581 8.49523L385.886 7.55649L384.134 5.12112L382.382 2.68576L381.077 3.6245L382.829 6.05987ZM384.134 5.12112L385.886 7.55649L387.191 6.61774L385.439 4.18238L383.687 1.74701L382.382 2.68576L384.134 5.12112ZM385.439 4.18238L387.191 6.61774C387.645 6.29105 387.869 6.29277 387.925 6.2951L388.049 3.29767L388.173 0.300237C386.489 0.230521 384.973 0.822048 383.687 1.74701L385.439 4.18238ZM388.049 3.29767L387.925 6.2951L389.23 6.34913L389.354 3.3517L389.478 0.354271L388.173 0.300237L388.049 3.29767ZM389.354 3.3517L389.23 6.34913L390.535 6.40317L390.659 3.40574L390.783 0.408305L389.478 0.354271L389.354 3.3517ZM390.659 3.40574L390.535 6.40317C390.556 6.40404 390.81 6.41445 391.329 6.85445L393.269 4.5661L395.209 2.27775C393.988 1.24264 392.502 0.479474 390.783 0.408305L390.659 3.40574ZM393.269 4.5661L391.329 6.85445L392.634 7.96077L394.574 5.67243L396.514 3.38408L395.209 2.27775L393.269 4.5661ZM394.574 5.67243L392.634 7.96077L393.939 9.0671L395.879 6.77875L397.819 4.49041L396.514 3.38408L394.574 5.67243ZM395.879 6.77875L393.939 9.0671C395.341 10.2561 397.209 10.9906 399.288 10.416L398.489 7.52444L397.69 4.63283C397.727 4.62251 397.783 4.61279 397.85 4.61311C397.918 4.61342 397.973 4.62364 398.008 4.63376C398.075 4.65297 398.011 4.65294 397.819 4.49041L395.879 6.77875ZM398.489 7.52444L399.288 10.416L400.593 10.0554L399.794 7.16379L398.995 4.27218L397.69 4.63283L398.489 7.52444ZM399.794 7.16379L400.593 10.0554L401.898 9.69475L401.099 6.80314L400.3 3.91153L398.995 4.27218L399.794 7.16379ZM401.099 6.80314L401.898 9.69475C403.076 9.36931 404.205 8.85585 405.286 8.18844L403.709 5.63624L402.132 3.08404C401.472 3.49164 400.862 3.75611 400.3 3.91153L401.099 6.80314ZM403.709 5.63624L405.286 8.18844L406.591 7.38219L405.014 4.82999L403.437 2.27779L402.132 3.08404L403.709 5.63624ZM405.014 4.82999L406.591 7.38219L407.896 6.57594L406.319 4.02374L404.742 1.47154L403.437 2.27779L405.014 4.82999ZM406.319 4.02374L407.896 6.57594C407.953 6.54074 407.867 6.60607 407.674 6.60929C407.586 6.61076 407.511 6.59817 407.457 6.58285C407.406 6.56827 407.391 6.55631 407.415 6.57026L408.929 3.98014L410.443 1.39002C409.61 0.903309 408.64 0.592323 407.574 0.610129C406.511 0.627888 405.555 0.969237 404.742 1.47154L406.319 4.02374ZM408.929 3.98014L407.415 6.57026L408.72 7.33291L410.234 4.74279L411.748 2.15267L410.443 1.39002L408.929 3.98014ZM410.234 4.74279L408.72 7.33291L410.025 8.09556L411.539 5.50544L413.053 2.91532L411.748 2.15267L410.234 4.74279ZM411.539 5.50544L410.025 8.09556C411.396 8.89671 412.951 9.28571 414.596 9.03817L414.149 6.0716L413.702 3.10504C413.606 3.11948 413.422 3.13104 413.053 2.91532L411.539 5.50544ZM414.149 6.0716L414.596 9.03817L415.901 8.84167L415.454 5.87511L415.007 2.90855L413.702 3.10504L414.149 6.0716ZM415.454 5.87511L415.901 8.84167L417.206 8.64518L416.759 5.67862L416.312 2.71206L415.007 2.90855L415.454 5.87511ZM416.759 5.67862L417.206 8.64518C418.228 8.49122 419.244 8.25789 420.251 7.94774L419.369 5.08048L418.486 2.21321C417.754 2.4386 417.03 2.60403 416.312 2.71206L416.759 5.67862ZM419.369 5.08048L420.251 7.94774L421.556 7.54609L420.674 4.67883L419.791 1.81156L418.486 2.21321L419.369 5.08048ZM420.674 4.67883L421.556 7.54609L422.861 7.14444L421.979 4.27718L421.096 1.40991L419.791 1.81156L420.674 4.67883ZM421.979 4.27718L422.861 7.14444C423.556 6.93075 424.238 6.79018 424.91 6.71784L424.589 3.73506L424.268 0.752292C423.2 0.867231 422.142 1.08807 421.096 1.40991L421.979 4.27718ZM424.589 3.73506L424.91 6.71784L426.215 6.57738L425.894 3.59461L425.573 0.611834L424.268 0.752292L424.589 3.73506ZM425.894 3.59461L426.215 6.57738L427.52 6.43692L427.199 3.45415L426.878 0.471375L425.573 0.611834L425.894 3.59461ZM427.199 3.45415L427.52 6.43692C427.447 6.44477 427.374 6.44134 427.311 6.42969C427.249 6.41838 427.217 6.40328 427.219 6.40406C427.232 6.41017 427.375 6.48444 427.631 6.75447L429.809 4.69145L431.987 2.62842C430.774 1.34804 429.042 0.238498 426.878 0.471375L427.199 3.45415ZM429.809 4.69145L427.631 6.75447L428.936 8.13223L431.114 6.06921L433.292 4.00618L431.987 2.62842L429.809 4.69145ZM431.114 6.06921L428.936 8.13223L430.241 9.50999L432.419 7.44696L434.597 5.38394L433.292 4.00618L431.114 6.06921ZM432.419 7.44696L430.241 9.50999C430.993 10.3043 432.2 11.1663 433.823 11.1126C435.414 11.0601 436.56 10.1516 437.268 9.35691L435.029 7.3607L432.789 5.36449C432.628 5.54583 432.904 5.13974 433.625 5.11591C434.377 5.09104 434.715 5.50818 434.597 5.38394L432.419 7.44696ZM435.029 7.3607L437.268 9.35691L438.573 7.89289L436.334 5.89668L434.094 3.90047L432.789 5.36449L435.029 7.3607ZM436.334 5.89668L438.573 7.89289L439.878 6.42887L437.639 4.43266L435.399 2.43645L434.094 3.90047L436.334 5.89668ZM437.639 4.43266L439.878 6.42887C440.027 6.26166 439.693 6.72645 438.89 6.71195C438.106 6.6978 437.806 6.24127 437.978 6.44058L440.249 4.47981L442.519 2.51904C441.822 1.71091 440.651 0.742793 438.998 0.712928C437.325 0.682711 436.12 1.62765 435.399 2.43645L437.639 4.43266ZM440.249 4.47981L437.978 6.44058L439.283 7.95175L441.554 5.99098L443.824 4.0302L442.519 2.51904L440.249 4.47981ZM441.554 5.99098L439.283 7.95175L440.588 9.46291L442.859 7.50214L445.129 5.54137L443.824 4.0302L441.554 5.99098ZM442.859 7.50214L440.588 9.46291C441.669 10.7141 442.998 11.7973 444.622 12.2753L445.469 9.3973L446.316 6.5193C446.2 6.4853 445.789 6.30505 445.129 5.54137L442.859 7.50214ZM445.469 9.3973L444.622 12.2753L445.927 12.6593L446.774 9.78129L447.621 6.90329L446.316 6.5193L445.469 9.3973ZM446.774 9.78129L445.927 12.6593L447.232 13.0433L448.079 10.1653L448.926 7.28728L447.621 6.90329L446.774 9.78129ZM448.079 10.1653L447.232 13.0433C448.979 13.5572 450.692 13.2579 452.189 12.3941L450.689 9.79595L449.189 7.19777C449.04 7.28411 448.968 7.29395 448.964 7.29453C448.961 7.29493 448.96 7.29494 448.96 7.29493C448.96 7.29492 448.96 7.29494 448.96 7.2949C448.959 7.29486 448.957 7.29465 448.952 7.29373C448.947 7.29279 448.938 7.29094 448.926 7.28728L448.079 10.1653ZM450.689 9.79595L452.189 12.3941L453.494 11.6408L451.994 9.04263L450.494 6.44445L449.189 7.19777L450.689 9.79595ZM451.994 9.04263L453.494 11.6408L454.799 10.8875L453.299 8.28932L451.799 5.69114L450.494 6.44445L451.994 9.04263ZM453.299 8.28932L454.799 10.8875C455.276 10.6119 455.622 10.5473 455.876 10.5501L455.909 7.55026L455.942 4.55044C454.456 4.5342 453.062 4.96231 451.799 5.69114L453.299 8.28932ZM455.909 7.55026L455.876 10.5501L457.181 10.5643L457.214 7.56451L457.247 4.56469L455.942 4.55044L455.909 7.55026ZM457.214 7.56451L457.181 10.5643L458.486 10.5786L458.519 7.57877L458.552 4.57895L457.247 4.56469L457.214 7.56451ZM458.519 7.57877L458.486 10.5786C459.469 10.5893 460.451 10.5448 461.432 10.4453L461.129 7.46065L460.826 4.47597C460.067 4.55297 459.309 4.58722 458.552 4.57895L458.519 7.57877ZM461.129 7.46065L461.432 10.4453L462.737 10.313L462.434 7.32827L462.131 4.34359L460.826 4.47597L461.129 7.46065ZM462.434 7.32827L462.737 10.313L464.042 10.1806L463.739 7.1959L463.436 4.21121L462.131 4.34359L462.434 7.32827ZM463.739 7.1959L464.042 10.1806C465.491 10.0336 466.823 9.4821 468.022 8.67706L466.349 6.18682L464.676 3.69658C464.134 4.06048 463.727 4.18169 463.436 4.21121L463.739 7.1959ZM466.349 6.18682L468.022 8.67706L469.327 7.80036L467.654 5.31012L465.981 2.81988L464.676 3.69658L466.349 6.18682ZM467.654 5.31012L469.327 7.80036L470.632 6.92366L468.959 4.43342L467.286 1.94318L465.981 2.81988L467.654 5.31012ZM468.959 4.43342L470.632 6.92366C470.634 6.92227 470.575 6.96186 470.458 6.99653C470.333 7.03301 470.179 7.0532 470.013 7.03928C469.669 7.01039 469.538 6.86386 469.64 6.94993L471.569 4.65219L473.498 2.35444C472.73 1.7102 471.729 1.16205 470.514 1.06024C469.271 0.956043 468.169 1.34984 467.286 1.94318L468.959 4.43342ZM471.569 4.65219L469.64 6.94993L470.945 8.0454L472.874 5.74766L474.803 3.44991L473.498 2.35444L471.569 4.65219ZM472.874 5.74766L470.945 8.0454L472.25 9.14087L474.179 6.84312L476.108 4.54538L474.803 3.44991L472.874 5.74766ZM474.179 6.84312L472.25 9.14087C473.044 9.80769 474.108 10.3723 475.402 10.4075C476.709 10.4431 477.808 9.92791 478.641 9.27403L476.789 6.91421L474.937 4.5544C474.9 4.58344 475.129 4.39786 475.566 4.40974C475.99 4.42131 476.183 4.60887 476.108 4.54538L474.179 6.84312ZM476.789 6.91421L478.641 9.27403L479.946 8.24965L478.094 5.88984L476.242 3.53002L474.937 4.5544L476.789 6.91421ZM478.094 5.88984L479.946 8.24965L481.251 7.22527L479.399 4.86546L477.547 2.50564L476.242 3.53002L478.094 5.88984ZM479.399 4.86546L481.251 7.22527C481.403 7.10606 481.411 7.14484 481.278 7.17073C481.212 7.18358 481.135 7.18809 481.057 7.18028C480.981 7.1726 480.928 7.1556 480.906 7.14685L482.009 4.35686L483.112 1.56687C481.053 0.753369 479.074 1.30647 477.547 2.50564L479.399 4.86546ZM482.009 4.35686L480.906 7.14685L482.211 7.66263L483.314 4.87264L484.417 2.08265L483.112 1.56687L482.009 4.35686ZM483.314 4.87264L482.211 7.66263L483.516 8.17841L484.619 5.38842L485.722 2.59843L484.417 2.08265L483.314 4.87264ZM484.619 5.38842L483.516 8.17841C484.083 8.40231 484.71 8.75721 485.394 9.28649L487.229 6.91279L489.063 4.53909C488.008 3.72359 486.895 3.06224 485.722 2.59843L484.619 5.38842ZM487.229 6.91279L485.394 9.28649L486.699 10.2951L488.534 7.92138L490.368 5.54768L489.063 4.53909L487.229 6.91279ZM488.534 7.92138L486.699 10.2951L488.004 11.3037L489.839 8.92997L491.673 6.55627L490.368 5.54768L488.534 7.92138ZM489.839 8.92997L488.004 11.3037C488.751 11.8808 489.666 12.3491 490.736 12.4959C491.832 12.6463 492.873 12.4288 493.787 11.9728L492.449 9.28798L491.11 6.60312C491.122 6.59725 491.175 6.57335 491.263 6.55737C491.354 6.54092 491.454 6.53823 491.552 6.5516C491.752 6.57909 491.797 6.65149 491.673 6.55627L489.839 8.92997ZM492.449 9.28798L493.787 11.9728L495.092 11.3223L493.754 8.6374L492.415 5.95254L491.11 6.60312L492.449 9.28798ZM493.754 8.6374L495.092 11.3223L496.397 10.6717L495.059 7.98683L493.72 5.30197L492.415 5.95254L493.754 8.6374ZM495.059 7.98683L496.397 10.6717C496.786 10.4781 497.048 10.4607 497.254 10.4896L497.669 7.51835L498.083 4.54714C496.55 4.33318 495.072 4.62807 493.72 5.30197L495.059 7.98683ZM497.669 7.51835L497.254 10.4896L498.559 10.6717L498.974 7.70046L499.389 4.72924L498.083 4.54714L497.669 7.51835ZM498.974 7.70046L498.559 10.6717L499.864 10.8538L500.279 7.88256L500.694 4.91135L499.389 4.72924L498.974 7.70046ZM500.279 7.88256L499.864 10.8538C501.819 11.1265 503.517 10.3587 504.832 9.24151L502.889 6.95557L500.946 4.66962C500.725 4.85736 500.601 4.90729 500.58 4.91488C500.571 4.91806 500.582 4.91319 500.61 4.9102C500.638 4.90714 500.668 4.90778 500.694 4.91135L500.279 7.88256ZM502.889 6.95557L504.832 9.24151L506.137 8.13241L504.194 5.84647L502.251 3.56052L500.946 4.66962L502.889 6.95557ZM504.194 5.84647L506.137 8.13241L507.442 7.02332L505.499 4.73737L503.556 2.45142L502.251 3.56052L504.194 5.84647ZM505.499 4.73737L507.442 7.02332C507.988 6.559 508.305 6.49329 508.407 6.48304L508.109 3.4979L507.811 0.512763C506.173 0.676346 504.75 1.43695 503.556 2.45142L505.499 4.73737ZM508.109 3.4979L508.407 6.48304L509.712 6.35267L509.414 3.36753L509.116 0.382393L507.811 0.512763L508.109 3.4979ZM509.414 3.36753L509.712 6.35267L511.017 6.22231L510.719 3.23716L510.421 0.252023L509.116 0.382393L509.414 3.36753ZM510.719 3.23716L511.017 6.22231C511.511 6.17296 512.013 6.21306 512.541 6.35673L513.329 3.46211L514.117 0.567482C512.905 0.237408 511.667 0.127544 510.421 0.252023L510.719 3.23716ZM513.329 3.46211L512.541 6.35673L513.846 6.71205L514.634 3.81742L515.422 0.922796L514.117 0.567482L513.329 3.46211ZM514.634 3.81742L513.846 6.71205L515.151 7.06736L515.939 4.17274L516.727 1.27811L515.422 0.922796L514.634 3.81742ZM515.939 4.17274L515.151 7.06736C516.109 7.32834 517.071 7.54296 518.035 7.7106L518.549 4.75495L519.063 1.79929C518.287 1.66441 517.509 1.49089 516.727 1.27811L515.939 4.17274ZM518.549 4.75495L518.035 7.7106L519.34 7.9375L519.854 4.98184L520.368 2.02619L519.063 1.79929L518.549 4.75495ZM519.854 4.98184L519.34 7.9375L520.645 8.1644L521.159 5.20874L521.673 2.25308L520.368 2.02619L519.854 4.98184ZM521.159 5.20874L520.645 8.1644C521.29 8.27663 521.954 8.46712 522.638 8.7455L523.769 5.96697L524.9 3.18844C523.844 2.75838 522.767 2.44339 521.673 2.25308L521.159 5.20874ZM523.769 5.96697L522.638 8.7455L523.943 9.27683L525.074 6.4983L526.205 3.71978L524.9 3.18844L523.769 5.96697ZM525.074 6.4983L523.943 9.27683L525.248 9.80816L526.379 7.02964L527.51 4.25111L526.205 3.71978L525.074 6.4983ZM526.379 7.02964L525.248 9.80816C526.584 10.3523 528.001 10.5474 529.442 10.327L528.989 7.36147L528.536 4.39592C528.237 4.44153 527.914 4.41537 527.51 4.25111L526.379 7.02964ZM528.989 7.36147L529.442 10.327L530.747 10.1275L530.294 7.16197L529.841 4.19642L528.536 4.39592L528.989 7.36147ZM530.294 7.16197L530.747 10.1275L532.052 9.92801L531.599 6.96246L531.146 3.99692L529.841 4.19642L530.294 7.16197ZM531.599 6.96246L532.052 9.92801C532.959 9.78944 533.865 9.63384 534.77 9.46124L534.209 6.51427L533.647 3.56731C532.813 3.72629 531.979 3.86948 531.146 3.99692L531.599 6.96246ZM534.209 6.51427L534.77 9.46124L536.076 9.21256L535.514 6.26559L534.952 3.31862L533.647 3.56731L534.209 6.51427ZM535.514 6.26559L536.076 9.21256L537.38 8.96387L536.819 6.0169L536.257 3.06993L534.952 3.31862L535.514 6.26559ZM536.819 6.0169L537.38 8.96387C537.648 8.91284 537.933 8.92812 538.301 9.07759L539.429 6.29768L540.557 3.51777C539.185 2.96129 537.73 2.78938 536.257 3.06993L536.819 6.0169ZM539.429 6.29768L538.301 9.07759L539.606 9.60705L540.734 6.82714L541.862 4.04723L540.557 3.51777L539.429 6.29768ZM540.734 6.82714L539.606 9.60705L540.911 10.1365L542.039 7.3566L543.167 4.57669L541.862 4.04723L540.734 6.82714ZM542.039 7.3566L540.911 10.1365C542.163 10.6443 543.478 10.8834 544.828 10.8028L544.649 7.80812L544.47 4.81346C544.08 4.83675 543.655 4.77485 543.167 4.57669L542.039 7.3566ZM544.649 7.80812L544.828 10.8028L546.133 10.7248L545.954 7.73017L545.775 4.73551L544.47 4.81346L544.649 7.80812ZM545.954 7.73017L546.133 10.7248L547.438 10.6469L547.259 7.65223L547.08 4.65756L545.775 4.73551L545.954 7.73017ZM547.259 7.65223L547.438 10.6469C547.665 10.6333 547.976 10.6759 548.421 10.9209L549.869 8.29372L551.317 5.6665C550.022 4.95229 548.592 4.56724 547.08 4.65756L547.259 7.65223ZM549.869 8.29372L548.421 10.9209L549.726 11.6404L551.174 9.01315L552.622 6.38594L551.317 5.6665L549.869 8.29372ZM551.174 9.01315L549.726 11.6404L551.031 12.3598L552.479 9.73259L553.927 7.10537L552.622 6.38594L551.174 9.01315ZM552.479 9.73259L551.031 12.3598C552.049 12.9211 553.253 13.1522 554.503 12.8438C555.671 12.5553 556.58 11.869 557.256 11.1623L555.089 9.08822L552.921 7.01414C552.728 7.21665 552.767 7.0923 553.065 7.01866C553.223 6.97961 553.403 6.96892 553.583 6.99626C553.757 7.02277 553.875 7.07632 553.927 7.10537L552.479 9.73259ZM555.089 9.08822L557.256 11.1623L558.561 9.79849L556.394 7.72441L554.226 5.65033L552.921 7.01414L555.089 9.08822ZM556.394 7.72441L558.561 9.79849L559.866 8.43469L557.699 6.36061L555.531 4.28653L554.226 5.65033L556.394 7.72441ZM557.699 6.36061L559.866 8.43469C559.98 8.31636 560.062 8.24829 560.111 8.21288C560.159 8.17799 560.165 8.18177 560.127 8.19716C560.086 8.21378 560.009 8.23754 559.905 8.24622C559.799 8.25501 559.698 8.24542 559.615 8.22566L560.309 5.30696L561.003 2.38825C558.7 1.84107 556.804 2.95647 555.531 4.28653L557.699 6.36061ZM560.309 5.30696L559.615 8.22566L560.92 8.53581L561.614 5.6171L562.308 2.6984L561.003 2.38825L560.309 5.30696ZM561.614 5.6171L560.92 8.53581L562.225 8.84596L562.919 5.92725L563.613 3.00855L562.308 2.6984L561.614 5.6171ZM562.919 5.92725L562.225 8.84596C563.182 9.07346 564.142 9.25625 565.104 9.39384L565.529 6.42406L565.954 3.45429C565.176 3.343 564.395 3.19458 563.613 3.00855L562.919 5.92725ZM565.529 6.42406L565.104 9.39384L566.409 9.5805L566.834 6.61072L567.259 3.64094L565.954 3.45429L565.529 6.42406ZM566.834 6.61072L566.409 9.5805L567.714 9.76715L568.139 6.79738L568.564 3.8276L567.259 3.64094L566.834 6.61072ZM568.139 6.79738L567.714 9.76715C568.546 9.88616 569.379 10.0215 570.211 10.1732L570.749 7.22176L571.287 4.27033C570.379 4.10506 569.472 3.95747 568.564 3.8276L568.139 6.79738ZM570.749 7.22176L570.211 10.1732L571.516 10.4109L572.054 7.45948L572.592 4.50805L571.287 4.27033L570.749 7.22176ZM572.054 7.45948L571.516 10.4109L572.821 10.6486L573.359 7.69721L573.897 4.74578L572.592 4.50805L572.054 7.45948ZM573.359 7.69721L572.821 10.6486C573.636 10.797 574.451 10.9693 575.268 11.1655L575.969 8.24858L576.67 5.33164C575.746 5.10969 574.822 4.91436 573.897 4.74578L573.359 7.69721ZM575.969 8.24858L575.268 11.1655L576.573 11.4792L577.274 8.56222L577.975 5.64529L576.67 5.33164L575.969 8.24858ZM577.274 8.56222L576.573 11.4792L577.878 11.7928L578.579 8.87587L579.28 5.95893L577.975 5.64529L577.274 8.56222ZM578.579 8.87587L577.878 11.7928C579.226 12.1168 580.593 12.1048 581.935 11.7599L581.189 8.85423L580.442 5.9486C580.045 6.05074 579.672 6.05311 579.28 5.95893L578.579 8.87587ZM581.189 8.85423L581.935 11.7599L583.24 11.4246L582.494 8.51894L581.747 5.61331L580.442 5.9486L581.189 8.85423ZM582.494 8.51894L583.24 11.4246L584.545 11.0893L583.799 8.18365L583.052 5.27802L581.747 5.61331L582.494 8.51894ZM583.799 8.18365L584.545 11.0893C585.775 10.7733 586.942 10.2316 588.044 9.51584L586.409 7.00032L584.774 4.48481C584.136 4.89979 583.562 5.14696 583.052 5.27802L583.799 8.18365ZM586.409 7.00032L588.044 9.51584L589.349 8.6678L587.714 6.15228L586.079 3.63677L584.774 4.48481L586.409 7.00032ZM587.714 6.15228L589.349 8.6678L590.654 7.81976L589.019 5.30424L587.384 2.78872L586.079 3.63677L587.714 6.15228ZM589.019 5.30424L590.654 7.81976C590.618 7.84314 590.504 7.90913 590.316 7.9504C590.119 7.99367 589.907 7.99503 589.708 7.9532C589.329 7.87369 589.249 7.69889 589.438 7.90084L591.629 5.85198L593.82 3.80313C593.139 3.07456 592.189 2.3432 590.94 2.08112C589.599 1.79969 588.364 2.15175 587.384 2.78872L589.019 5.30424ZM591.629 5.85198L589.438 7.90084L590.742 9.29662L592.934 7.24777L595.125 5.19891L593.82 3.80313L591.629 5.85198ZM592.934 7.24777L590.742 9.29662L592.047 10.6924L594.239 8.64355L596.43 6.59469L595.125 5.19891L592.934 7.24777ZM594.239 8.64355L592.047 10.6924C593.172 11.8955 594.591 12.9182 596.331 13.2229L596.849 10.2679L597.366 7.31289C597.366 7.31289 597.045 7.25262 596.43 6.59469L594.239 8.64355ZM596.849 10.2679L596.331 13.2229L597.636 13.4515L598.154 10.4965L598.672 7.54146L597.366 7.31289L596.849 10.2679ZM598.154 10.4965L597.636 13.4515L598.941 13.6801L599.459 10.7251L599.977 7.77004L598.672 7.54146L598.154 10.4965ZM599.459 10.7251L598.941 13.6801C601.66 14.1563 603.527 12.2297 604.541 10.7551L602.069 9.05548L599.597 7.35588C599.451 7.56772 599.333 7.70962 599.247 7.79967C599.16 7.89053 599.125 7.90931 599.147 7.89477C599.173 7.87805 599.27 7.82204 599.433 7.78421C599.603 7.74461 599.793 7.73781 599.977 7.77004L599.459 10.7251ZM602.069 9.05548L604.541 10.7551L605.846 8.85693L603.374 7.15733L600.902 5.45773L599.597 7.35588L602.069 9.05548ZM603.374 7.15733L605.846 8.85693L607.151 6.95878L604.679 5.25917L602.207 3.55957L600.902 5.45773L603.374 7.15733ZM604.679 5.25917L607.151 6.95878C607.469 6.49577 607.683 6.3058 607.758 6.25048C607.812 6.21142 607.653 6.34037 607.326 6.34446L607.289 3.34469L607.251 0.344928C604.856 0.374906 603.217 2.0902 602.207 3.55957L604.679 5.25917ZM607.289 3.34469L607.326 6.34446L608.631 6.32813L608.594 3.32836L608.556 0.328598L607.251 0.344928L607.289 3.34469ZM608.594 3.32836L608.631 6.32813L609.936 6.3118L609.899 3.31203L609.861 0.312268L608.556 0.328598L608.594 3.32836ZM609.899 3.31203L609.936 6.3118C610.658 6.30277 611.381 6.34706 612.106 6.44533L612.509 3.47248L612.912 0.49963C611.897 0.362197 610.88 0.299522 609.861 0.312268L609.899 3.31203ZM612.509 3.47248L612.106 6.44533L613.411 6.6221L613.814 3.64925L614.217 0.676405L612.912 0.49963L612.509 3.47248ZM613.814 3.64925L613.411 6.6221L614.716 6.79888L615.119 3.82603L615.522 0.85318L614.217 0.676405L613.814 3.64925ZM615.119 3.82603L614.716 6.79888C615.758 6.94004 616.804 6.98991 617.85 6.94764L617.729 3.95008L617.608 0.952526C616.914 0.980547 616.219 0.947718 615.522 0.85318L615.119 3.82603ZM617.729 3.95008L617.85 6.94764L619.155 6.89491L619.034 3.89736L618.913 0.899802L617.608 0.952526L617.729 3.95008ZM619.034 3.89736L619.155 6.89491L620.46 6.84219L620.339 3.84463L620.218 0.847079L618.913 0.899802L619.034 3.89736ZM620.339 3.84463L620.46 6.84219C621.035 6.81897 621.618 6.87855 622.218 7.02925L622.949 4.11955L623.679 1.20986C622.54 0.923703 621.383 0.800003 620.218 0.847079L620.339 3.84463ZM622.949 4.11955L622.218 7.02925L623.523 7.35689L624.254 4.4472L624.984 1.5375L623.679 1.20986L622.949 4.11955ZM624.254 4.4472L623.523 7.35689L624.828 7.68453L625.559 4.77484L626.289 1.86514L624.984 1.5375L624.254 4.4472ZM625.559 4.77484L624.828 7.68453C625.772 7.92134 626.717 8.12082 627.663 8.28266L628.169 5.32555L628.674 2.36844C627.881 2.23286 627.086 2.0652 626.289 1.86514L625.559 4.77484ZM628.169 5.32555L627.663 8.28266L628.968 8.50573L629.474 5.54862L629.979 2.59151L628.674 2.36844L628.169 5.32555ZM629.474 5.54862L628.968 8.50573L630.273 8.7288L630.779 5.77169L631.284 2.81458L629.979 2.59151L629.474 5.54862ZM630.779 5.77169L630.273 8.7288C631.345 8.91201 632.423 8.98401 633.503 8.9428L633.389 5.94498L633.275 2.94716C632.615 2.97233 631.953 2.9288 631.284 2.81458L630.779 5.77169ZM633.389 5.94498L633.503 8.9428L634.808 8.89303L634.694 5.89521L634.58 2.89739L633.275 2.94716L633.389 5.94498ZM634.694 5.89521L634.808 8.89303L636.113 8.84325L635.999 5.84543L635.885 2.84761L634.58 2.89739L634.694 5.89521ZM635.999 5.84543L636.113 8.84325C637.131 8.80442 638.146 8.69042 639.157 8.50243L638.609 5.55299L638.06 2.60355C637.331 2.73911 636.607 2.82007 635.885 2.84761L635.999 5.84543ZM638.609 5.55299L639.157 8.50243L640.462 8.25976L639.914 5.31032L639.365 2.36088L638.06 2.60355L638.609 5.55299ZM639.914 5.31032L640.462 8.25976L641.767 8.01709L641.219 5.06765L640.67 2.11821L639.365 2.36088L639.914 5.31032ZM641.219 5.06765L641.767 8.01709C641.96 7.9812 642.19 7.98751 642.542 8.1546L643.829 5.44442L645.115 2.73424C643.727 2.07541 642.217 1.83054 640.67 2.11821L641.219 5.06765ZM643.829 5.44442L642.542 8.1546L643.847 8.77404L645.134 6.06386L646.42 3.35368L645.115 2.73424L643.829 5.44442ZM645.134 6.06386L643.847 8.77404L645.152 9.39348L646.439 6.6833L647.725 3.97312L646.42 3.35368L645.134 6.06386ZM646.439 6.6833L645.152 9.39348C645.99 9.79126 646.829 10.2076 647.669 10.6426L649.049 7.97878L650.429 5.315C649.528 4.84857 648.627 4.40125 647.725 3.97312L646.439 6.6833ZM649.049 7.97878L647.669 10.6426L648.974 11.3186L650.354 8.65483L651.734 5.99104L650.429 5.315L649.049 7.97878ZM650.354 8.65483L648.974 11.3186L650.279 11.9947L651.659 9.33088L653.039 6.66709L651.734 5.99104L650.354 8.65483ZM651.659 9.33088L650.279 11.9947C651.416 12.5835 652.609 12.9865 653.851 13.1612L654.269 10.1905L654.687 7.21971C654.189 7.14968 653.642 6.97967 653.039 6.66709L651.659 9.33088ZM654.269 10.1905L653.851 13.1612L655.156 13.3448L655.574 10.374L655.992 7.40326L654.687 7.21971L654.269 10.1905ZM655.574 10.374L655.156 13.3448L656.461 13.5283L656.879 10.5576L657.297 7.5868L655.992 7.40326L655.574 10.374ZM656.879 10.5576L656.461 13.5283C658.845 13.8636 660.65 12.4674 661.797 11.0856L659.489 9.16923L657.181 7.25291C657.049 7.41139 656.944 7.51533 656.87 7.58012C656.795 7.64484 656.762 7.66034 656.775 7.65365C656.79 7.64558 656.852 7.6157 656.955 7.59543C657.062 7.5745 657.181 7.57049 657.297 7.5868L656.879 10.5576ZM659.489 9.16923L661.797 11.0856L663.102 9.51368L660.794 7.59736L658.486 5.68104L657.181 7.25291L659.489 9.16923ZM660.794 7.59736L663.102 9.51368L664.407 7.94181L662.099 6.02549L659.791 4.10916L658.486 5.68104L660.794 7.59736ZM662.099 6.02549L664.407 7.94181C664.659 7.63795 664.719 7.67571 664.54 7.74882C664.437 7.79134 664.282 7.83259 664.092 7.83483C663.902 7.83707 663.742 7.79933 663.629 7.75599L664.709 4.95705L665.789 2.15811C664.633 1.71214 663.405 1.73046 662.267 2.19606C661.219 2.62531 660.409 3.3651 659.791 4.10916L662.099 6.02549ZM664.709 4.95705L663.629 7.75599L664.934 8.25943L666.014 5.46049L667.094 2.66155L665.789 2.15811L664.709 4.95705ZM666.014 5.46049L664.934 8.25943L666.239 8.76287L667.319 5.96393L668.399 3.16499L667.094 2.66155L666.014 5.46049ZM667.319 5.96393L666.239 8.76287C667.087 9.09015 667.818 9.35715 668.298 9.48762L669.085 6.59251L669.871 3.69741C669.737 3.66101 669.29 3.50896 668.399 3.16499L667.319 5.96393ZM669.085 6.59251L668.298 9.48762L668.759 9.61277L669.545 6.71766L670.332 3.82256L669.871 3.69741L669.085 6.59251ZM669.545 6.71766L668.671 9.58741L669.492 9.83771L670.367 6.96796L671.241 4.0982L670.42 3.84791L669.545 6.71766ZM670.367 6.96796V9.96796H670.467V6.96796V3.96796H670.367V6.96796Z" fill="#232E27"/>
</svg>
